<?xml version="1.0" encoding="utf-8"?>
<!-- Generator: Adobe Illustrator 23.0.2, SVG Export Plug-In . SVG Version: 6.00 Build 0)  -->
<svg version="1.1" id="Layer_1" xmlns="http://www.w3.org/2000/svg" xmlns:xlink="http://www.w3.org/1999/xlink" x="0px" y="0px"
	 viewBox="0 0 24 18" style="enable-background:new 0 0 24 18;" xml:space="preserve">
<g>
	<path d="M200.4,3h2.6c0.8,0,1.3,0.3,1.6,0.8c0.3,0.5,0.5,1.3,0.5,2.2c0,1-0.2,1.8-0.5,2.2C204.2,8.7,203.7,9,203,9h-2.6V3z
		 M202.8,7.7c0.3,0,0.5-0.1,0.7-0.4c0.1-0.3,0.2-0.7,0.2-1.3c0-0.5,0-0.8-0.1-1.1s-0.2-0.4-0.3-0.5c-0.1-0.1-0.3-0.1-0.5-0.1h-1v3.5
		H202.8z"/>
	<path d="M207.2,8.8c-0.4-0.2-0.6-0.5-0.8-0.9c-0.2-0.4-0.3-1.1-0.3-1.9s0.1-1.5,0.3-1.9c0.2-0.4,0.4-0.7,0.8-0.9S208,3,208.6,3
		c0.6,0,1.1,0.1,1.4,0.2c0.4,0.2,0.6,0.5,0.8,0.9c0.2,0.4,0.3,1.1,0.3,1.9s-0.1,1.4-0.3,1.9c-0.2,0.4-0.4,0.7-0.8,0.9
		c-0.4,0.2-0.8,0.2-1.4,0.2C208,9,207.5,8.9,207.2,8.8z M209.3,7.6c0.2-0.1,0.3-0.3,0.3-0.5c0.1-0.3,0.1-0.6,0.1-1.1
		c0-0.5,0-0.9-0.1-1.1c-0.1-0.2-0.2-0.4-0.3-0.5s-0.4-0.1-0.7-0.1c-0.3,0-0.5,0-0.7,0.1s-0.3,0.3-0.3,0.5c-0.1,0.3-0.1,0.6-0.1,1.1
		c0,0.5,0,0.9,0.1,1.1c0.1,0.2,0.2,0.4,0.3,0.5c0.2,0.1,0.4,0.1,0.7,0.1C208.9,7.8,209.1,7.7,209.3,7.6z"/>
	<path d="M213.1,8.8c-0.3-0.2-0.5-0.5-0.7-0.9c-0.2-0.4-0.3-1.1-0.3-1.9c0-0.8,0.1-1.4,0.3-1.8c0.2-0.4,0.4-0.7,0.7-0.9
		s0.7-0.3,1.2-0.3c0.4,0,0.8,0,1.1,0.1c0.3,0.1,0.6,0.1,0.8,0.2v1.1c-0.5-0.1-1-0.1-1.6-0.1c-0.3,0-0.5,0-0.7,0.1
		c-0.1,0.1-0.3,0.3-0.3,0.5c-0.1,0.3-0.1,0.6-0.1,1.1c0,0.5,0,0.9,0.1,1.1s0.2,0.4,0.3,0.5c0.2,0.1,0.4,0.1,0.7,0.1
		c0.7,0,1.3,0,1.6-0.1v1.1c-0.5,0.2-1.1,0.2-1.9,0.2C213.8,9,213.4,8.9,213.1,8.8z"/>
</g>
<path d="M214.3-3h-16c-1.1,0-2,0.9-2,2l0,14c0,1.1,0.9,2,2,2h20c1.1,0,2-0.9,2-2V3L214.3-3z M198.3,13V-1h15l5,5v9H198.3z"/>
<g>
	<g>
		<path d="M4.3,6h2.6c0.5,0,0.9,0.1,1.3,0.4c0.3,0.3,0.5,0.8,0.5,1.7c0,0.8-0.2,1.4-0.5,1.7c-0.3,0.3-0.7,0.4-1.2,0.4
			c-0.2,0-0.5,0-0.8-0.1c-0.3,0-0.4-0.1-0.5-0.1V12H4.3V6z M6.7,9C6.9,9,7.1,9,7.1,8.8s0.1-0.4,0.1-0.7c0-0.6-0.2-0.9-0.5-0.9h-1V9
			H6.7z"/>
		<path d="M9.8,6h2.6c0.8,0,1.3,0.3,1.6,0.8c0.3,0.5,0.5,1.3,0.5,2.2c0,1-0.2,1.8-0.5,2.2C13.6,11.7,13,12,12.3,12H9.8V6z
			 M12.2,10.7c0.3,0,0.5-0.1,0.7-0.4c0.1-0.3,0.2-0.7,0.2-1.3c0-0.5,0-0.8-0.1-1.1c-0.1-0.3-0.2-0.4-0.3-0.5
			c-0.1-0.1-0.3-0.1-0.5-0.1h-1v3.5H12.2z"/>
		<path d="M15.6,7.5c0-0.5,0.1-0.9,0.4-1.1c0.3-0.2,0.6-0.3,1-0.3h0.2c1,0,1.8,0.1,2.4,0.1v1.2h-2.2c-0.1,0-0.2,0-0.3,0.1
			C17.1,7.5,17,7.6,17,7.7v0.8l2.2,0.1v1.1L17,9.8V12h-1.4V7.5z"/>
	</g>
	<path d="M18,0H2C0.9,0,0,0.9,0,2l0,14c0,1.1,0.9,2,2,2h20c1.1,0,2-0.9,2-2V6L18,0z M2,16V2h15l5,5v9H2z"/>
</g>
</svg>
