<svg xmlns="http://www.w3.org/2000/svg" viewBox="0 0 57.15 64"><defs><style>.cls-1{fill:#a4c639;}</style></defs><title>Asset 8</title><g id="Layer_2" data-name="Layer 2"><g id="Layer_1-2" data-name="Layer 1"><path class="cls-1" d="M10.44,18.26c0,.16,0,.31,0,.46v26a5,5,0,0,0,4.95,5h.2V60a4,4,0,1,0,8,0V49.73h10V60a4,4,0,1,0,8,0V49.73h.2a5,5,0,0,0,4.95-5v-26a3.54,3.54,0,0,0,0-.46Z"/><path class="cls-1" d="M4,20.57a4,4,0,0,0-4,4V41.71a4,4,0,0,0,8,0V24.57A4,4,0,0,0,4,20.57Z"/><path class="cls-1" d="M53.15,20.57a4,4,0,0,0-4,4V41.71a4,4,0,0,0,8,0V24.57A4,4,0,0,0,53.15,20.57Z"/><path class="cls-1" d="M46.59,16.56A14.52,14.52,0,0,0,42.17,6.48L45.56.61a.42.42,0,0,0-.15-.56.42.42,0,0,0-.56.15L41.56,5.9a19.08,19.08,0,0,0-11-4.72h-4a19.06,19.06,0,0,0-11,4.72L12.3.2a.42.42,0,0,0-.56-.15.42.42,0,0,0-.15.56L15,6.48a14.52,14.52,0,0,0-4.42,10.08ZM34.5,9.41a2.07,2.07,0,0,1,4.14,0h0a2.07,2.07,0,0,1-4.14,0Zm-15.43,0a2.07,2.07,0,0,1,4.14,0h0a2.07,2.07,0,0,1-4.14,0Z"/></g></g></svg>