<svg xmlns="http://www.w3.org/2000/svg" viewBox="0 0 52.17 64"><defs><style>.cls-1{fill:#999;}</style></defs><title>Asset 9</title><g id="Layer_2" data-name="Layer 2"><g id="Layer_1-2" data-name="Layer 1"><path class="cls-1" d="M28.79,5.57A13.7,13.7,0,0,1,38.84,0a13.66,13.66,0,0,1-3.31,10.23C31.07,15.59,26,14.71,26,14.71S25.05,10.5,28.79,5.57ZM26.54,18.36c2.16,0,6.17-3,11.4-3,9,0,12.53,6.4,12.53,6.4a13.9,13.9,0,0,0-6.92,12.13c0,9.68,8.62,13,8.62,13s-6,17-14.16,17c-3.74,0-6.65-2.52-10.59-2.52S19.42,64,16.83,64C9.39,64,0,47.91,0,35c0-12.73,8-19.4,15.41-19.4,4.84,0,8.61,2.79,11.13,2.79Z"/></g></g></svg>