<svg xmlns="http://www.w3.org/2000/svg" xmlns:xlink="http://www.w3.org/1999/xlink" viewBox="0 0 64 64"><defs><style>.cls-1{fill:none;}.cls-2{clip-path:url(#clip-path);}.cls-3{fill:#db4437;}.cls-4{fill:url(#linear-gradient);}.cls-19,.cls-21,.cls-5{fill:#3e2723;}.cls-5,.cls-8{fill-opacity:0.15;}.cls-6{fill:#0f9d58;}.cls-7{fill:url(#linear-gradient-2);}.cls-8{fill:#263238;}.cls-9{clip-path:url(#clip-path-6);}.cls-10{fill:#ffcd40;}.cls-11{fill:url(#linear-gradient-3);}.cls-12{clip-path:url(#clip-path-9);}.cls-13{fill:url(#radial-gradient);}.cls-14{clip-path:url(#clip-path-12);}.cls-15{fill:url(#radial-gradient-2);}.cls-16{fill:url(#radial-gradient-3);}.cls-17{fill:#f1f1f1;}.cls-18{fill:#4285f4;}.cls-19,.cls-22{fill-opacity:0.2;}.cls-20,.cls-22{fill:#fff;}.cls-20{fill-opacity:0.1;}.cls-21{opacity:0.1;isolation:isolate;}.cls-23{fill:url(#radial-gradient-4);}</style><clipPath id="clip-path"><circle class="cls-1" cx="32" cy="32" r="32"/></clipPath><linearGradient id="linear-gradient" x1="14.76" y1="1657.17" x2="33.85" y2="1668.32" gradientTransform="matrix(1, 0, 0, -1, -7, 1681.54)" gradientUnits="userSpaceOnUse"><stop offset="0" stop-color="#a52714" stop-opacity="0.6"/><stop offset="0.66" stop-color="#a52714" stop-opacity="0"/></linearGradient><linearGradient id="linear-gradient-2" x1="44.41" y1="1624.63" x2="23.2" y2="1637.06" gradientTransform="matrix(1, 0, 0, -1, -7, 1681.54)" gradientUnits="userSpaceOnUse"><stop offset="0" stop-color="#055524" stop-opacity="0.4"/><stop offset="0.33" stop-color="#055524" stop-opacity="0"/></linearGradient><clipPath id="clip-path-6"><polygon class="cls-1" points="0 64 30.46 64 44.6 49.86 44.6 39.27 19.4 39.27 0 5.99 0 64"/></clipPath><linearGradient id="linear-gradient-3" x1="48.4" y1="1666.34" x2="53.74" y2="1642.95" gradientTransform="matrix(1, 0, 0, -1, -7, 1681.54)" gradientUnits="userSpaceOnUse"><stop offset="0" stop-color="#ea6100" stop-opacity="0.3"/><stop offset="0.66" stop-color="#ea6100" stop-opacity="0"/></linearGradient><clipPath id="clip-path-9"><polygon class="cls-1" points="32 17.45 44.6 39.27 30.46 64 64 64 64 17.45 32 17.45"/></clipPath><radialGradient id="radial-gradient" cx="613.61" cy="1664.1" r="30.57" gradientTransform="matrix(1, 0, 0, -1, -583, 1681.54)" gradientUnits="userSpaceOnUse"><stop offset="0" stop-color="#3e2723" stop-opacity="0.2"/><stop offset="1" stop-color="#3e2723" stop-opacity="0"/></radialGradient><clipPath id="clip-path-12"><polygon class="cls-1" points="5.08 0 5.08 14.67 19.4 39.27 32 17.45 64 17.45 64 0 5.08 0"/></clipPath><radialGradient id="radial-gradient-2" cx="588.05" cy="1666.81" r="28.38" xlink:href="#radial-gradient"/><radialGradient id="radial-gradient-3" cx="614.94" cy="1649.49" r="31.95" gradientTransform="matrix(1, 0, 0, -1, -583, 1681.54)" gradientUnits="userSpaceOnUse"><stop offset="0" stop-color="#263238" stop-opacity="0.2"/><stop offset="1" stop-color="#263238" stop-opacity="0"/></radialGradient><radialGradient id="radial-gradient-4" cx="16.56" cy="1672.81" r="64.27" gradientTransform="matrix(1, 0, 0, -1, -7, 1681.54)" gradientUnits="userSpaceOnUse"><stop offset="0" stop-color="#fff" stop-opacity="0.1"/><stop offset="1" stop-color="#fff" stop-opacity="0"/></radialGradient></defs><title>Asset 6</title><g id="Layer_2" data-name="Layer 2"><g id="Layer_1-2" data-name="Layer 1"><g class="cls-2"><path class="cls-3" d="M5.08,0V39.27H19.4L32,17.45H64V0Z"/><path class="cls-4" d="M5.08,0V39.27H19.4L32,17.45H64V0Z"/></g><g class="cls-2"><path class="cls-5" d="M19.75,39.15,5.27,14.31l-.22.36L19.43,39.32Z"/></g><g class="cls-2"><path class="cls-6" d="M0,64H30.46L44.6,49.86V39.27H19.4L0,6Z"/><path class="cls-7" d="M0,64H30.46L44.6,49.86V39.27H19.4L0,6Z"/></g><g class="cls-2"><path class="cls-8" d="M44.31,39.76,44,39.58,30,64h.42L44.32,39.77Z"/></g><g class="cls-2"><g class="cls-9"><path class="cls-10" d="M32,17.45,44.6,39.27,30.46,64H64V17.45Z"/><path class="cls-11" d="M32,17.45,44.6,39.27,30.46,64H64V17.45Z"/></g></g><g class="cls-2"><path class="cls-10" d="M32,17.45,44.6,39.27,30.46,64H64V17.45Z"/><path class="cls-11" d="M32,17.45,44.6,39.27,30.46,64H64V17.45Z"/></g><g class="cls-2"><g class="cls-12"><path class="cls-3" d="M5.08,0V39.27H19.4L32,17.45H64V0Z"/><path class="cls-4" d="M5.08,0V39.27H19.4L32,17.45H64V0Z"/></g></g><g class="cls-2"><path class="cls-13" d="M32,17.45v7.62l28.51-7.62Z"/></g><g class="cls-2"><g class="cls-14"><path class="cls-6" d="M0,64H30.46L44.6,49.86V39.27H19.4L0,6Z"/><path class="cls-7" d="M0,64H30.46L44.6,49.86V39.27H19.4L0,6Z"/></g></g><g class="cls-2"><path class="cls-15" d="M5.08,14.71,25.9,35.52l-6.5,3.75Z"/></g><g class="cls-2"><path class="cls-16" d="M30.48,64l7.63-28.44,6.49,3.75Z"/></g><g class="cls-2"><circle class="cls-17" cx="32" cy="32" r="14.55"/><circle class="cls-18" cx="32" cy="32" r="11.64"/></g><g class="cls-2"><path class="cls-19" d="M32,17.09A14.55,14.55,0,0,0,17.45,31.64V32A14.56,14.56,0,0,1,32,17.45H64v-.36Z"/><path class="cls-20" d="M44.58,39.27a14.52,14.52,0,0,1-25.17,0h0L0,6v.37L19.4,39.64h0a14.53,14.53,0,0,0,25.17,0h0v-.37Z"/><path class="cls-21" d="M32.36,17.45l-.18,0a14.53,14.53,0,0,1,0,29.06l.18,0a14.55,14.55,0,0,0,0-29.1Z"/><path class="cls-22" d="M44.73,39.76A14.52,14.52,0,0,0,46,28.1a14.31,14.31,0,0,1-1.41,11.16v0L30.46,64h.42L44.73,39.77Z"/></g><g class="cls-2"><path class="cls-22" d="M32,.36A32,32,0,0,1,64,32.18V32A32,32,0,0,0,0,32v.18A32,32,0,0,1,32,.36Z"/><path class="cls-5" d="M32,63.64A32,32,0,0,0,64,31.82V32A32,32,0,0,1,0,32v-.18A32,32,0,0,0,32,63.64Z"/></g><circle class="cls-23" cx="32" cy="32" r="32"/></g></g></svg>