<svg xmlns="http://www.w3.org/2000/svg" viewBox="0 0 59.04 64"><defs><style>.cls-1{fill:#3277bc;}</style></defs><title>Asset 5</title><g id="Layer_2" data-name="Layer 2"><g id="Layer_1-2" data-name="Layer 1"><path class="cls-1" d="M18.71,25.79H41.37c0-8-3.51-13.53-13.09-13.53C17,12.26,5.47,19.62,0,28.8,1.69,12.87,13.12,0,30.33,0,45.07,0,59,11.27,59,30v7.12H18.83c0,9.7,8.46,13.54,17.32,13.54,10.78,0,17.46-4.84,17.46-4.84V59.42S46.07,64,34.05,64C18.44,64,7.42,52.81,7.42,38.89A24.66,24.66,0,0,1,23.18,15.65a16.5,16.5,0,0,0-4.47,10.14Z"/></g></g></svg>