<svg xmlns="http://www.w3.org/2000/svg" xmlns:xlink="http://www.w3.org/1999/xlink" viewBox="0 0 64 64"><defs><style>.cls-1{fill:url(#linear-gradient);}.cls-2{fill:url(#linear-gradient-2);}</style><linearGradient id="linear-gradient" x1="-966.83" y1="1344.41" x2="-966.83" y2="1344.38" gradientTransform="matrix(2083.01, 0, 0, -2500, 2013943.71, 3361019.2)" gradientUnits="userSpaceOnUse"><stop offset="0.3" stop-color="#ff1b2d"/><stop offset="0.44" stop-color="#fa1a2c"/><stop offset="0.59" stop-color="#ed1528"/><stop offset="0.76" stop-color="#d60e21"/><stop offset="0.93" stop-color="#b70519"/><stop offset="1" stop-color="#a70014"/></linearGradient><linearGradient id="linear-gradient-2" x1="-967.21" y1="1344.5" x2="-967.21" y2="1344.48" gradientTransform="matrix(1661.13, 0, 0, -2171.88, 1606699.37, 2920095.77)" gradientUnits="userSpaceOnUse"><stop offset="0" stop-color="#9c0000"/><stop offset="0.7" stop-color="#ff4b4b"/></linearGradient></defs><title>Asset 7</title><g id="Layer_2" data-name="Layer 2"><g id="Layer_1-2" data-name="Layer 1"><path class="cls-1" d="M21.48,50c-3.56-4.18-5.83-10.36-6-17.28v-1.5c.15-6.92,2.45-13.1,6-17.27,4.6-6,11.35-8.63,19-8.63,4.7,0,9.13.33,12.88,2.83A31.68,31.68,0,0,0,32.12,0H32a32,32,0,0,0-1.52,64c.5,0,1,0,1.52,0a31.85,31.85,0,0,0,21.33-8.15c-3.75,2.5-7.93,2.6-12.63,2.6C33.1,58.47,26.05,56,21.48,50Z"/><path class="cls-2" d="M21.48,14C24.4,10.5,28.2,8.43,32.35,8.43,41.67,8.43,49.22,19,49.22,32S41.67,55.62,32.35,55.62c-4.15,0-7.93-2.09-10.88-5.54a24.12,24.12,0,0,0,19,9.75A23.06,23.06,0,0,0,53.33,55.9a32,32,0,0,0,0-47.75A23,23,0,0,0,40.5,4.22a24,24,0,0,0-19,9.75Z"/></g></g></svg>