<svg xmlns="http://www.w3.org/2000/svg" viewBox="0 0 64 49.4"><defs><style>.cls-1{fill:#3b73b8;}.cls-1,.cls-2,.cls-3,.cls-4{fill-rule:evenodd;}.cls-2{fill:#ecb731;}.cls-3{fill:#43ad9c;}.cls-4{fill:#cc2229;}</style></defs><title>Asset 12</title><g id="Layer_2" data-name="Layer 2"><g id="Layer_1-2" data-name="Layer 1"><path class="cls-1" d="M33.73,29.52l-9.32-2.78-5.07,1.8,9.26,2.82Z"/><path class="cls-2" d="M23.89,45.93,34.42,49.4,43.75,46l-10.47-3.2-9.39,3.09Z"/><path class="cls-3" d="M49,37.68,33.28,42.84,43.75,46,58.84,40.6l-9.72-3-.17,0ZM34.37,33.13c-.37.13-.66.23-.82.3-1.22.52-10.7,3.64-10.7,3.64s-1.75.72-3.71,1.45l9.23,2.82L43.82,36l-9.45-2.89Z"/><path class="cls-1" d="M62.09,33.43c-5.48-3.13-13.92-3.3-16.53-3.13-2.26.15-8.72,2-11.19,2.83L43.82,36l3.48-1.2a11.27,11.27,0,0,1,6.18-.35c3.14.85-2.16,2.52-4.36,3.16l9.72,3,.64-.23s8.1-3.82,2.61-6.94Z"/><path class="cls-2" d="M17.89,39c-2.5.9-4.87,1.54-6.7.87-3.13-1.13.22-2.42,2.23-3.08L4.35,34c-2.76,1.58-10,6.56,3.88,9.15,11.14,2.09,15.14-.08,17.66-.95l2.48-.86-9.23-2.82L17.89,39Z"/><path class="cls-3" d="M14.67,36.38l13.93-5-9.26-2.82-14.07,5s-.37.18-.92.49l9.07,2.77Z"/><path class="cls-4" d="M23.89,0V45.93L34.42,49.4V10.25c0-1.65,3.8-2.54,3.88.95.09,3.65,0,16.67,0,16.67s5.28,2.69,8.65-.09,6.44-12.93-.26-19.1c0,0-2.93-3.47-14.18-6.42L23.89,0Z"/></g></g></svg>