<svg xmlns="http://www.w3.org/2000/svg" xmlns:xlink="http://www.w3.org/1999/xlink" viewBox="0 0 64 64"><defs><style>.cls-1{fill:url(#linear-gradient);}.cls-2{fill:url(#radial-gradient);}.cls-3{fill:#f3f3f3;}.cls-4{fill:#fff;}.cls-5{fill:#e2e2e2;}.cls-6{fill-opacity:0.2;fill:url(#linear-gradient-2);}.cls-7{fill-opacity:0.05;}.cls-8{fill:#cd151e;}.cls-9{fill:#fa5153;}.cls-10{fill:#acacac;}.cls-11{fill:#eee;}</style><linearGradient id="linear-gradient" x1="-566.06" y1="1344.39" x2="-566.06" y2="1344.42" gradientTransform="matrix(2421.88, 0, 0, -2421.88, 1370946.6, 3256017.64)" gradientUnits="userSpaceOnUse"><stop offset="0.25" stop-color="#dbdbda"/><stop offset="1" stop-color="#fff"/></linearGradient><radialGradient id="radial-gradient" cx="-566.08" cy="1344.46" r="0.02" gradientTransform="matrix(2240.23, 0, 0, -2240.23, 1268176.85, 3011934.34)" gradientUnits="userSpaceOnUse"><stop offset="0" stop-color="#2abce1"/><stop offset="0.11" stop-color="#2abbe1"/><stop offset="1" stop-color="#3375f8"/></radialGradient><linearGradient id="linear-gradient-2" x1="-566.08" y1="1344.46" x2="-566.08" y2="1344.45" gradientTransform="matrix(2240.23, 0, 0, -2240.23, 1268183.48, 3011933.39)" gradientUnits="userSpaceOnUse"><stop offset="0" stop-opacity="0"/><stop offset="1"/></linearGradient></defs><title>Asset 3</title><g id="Layer_2" data-name="Layer 2"><g id="Layer_1-2" data-name="Layer 1"><circle class="cls-1" cx="32" cy="32" r="32"/><circle class="cls-2" cx="32" cy="32" r="29.6"/><path class="cls-3" d="M32.05,9.6a.36.36,0,0,1-.37-.35V4a.36.36,0,0,1,.37-.35.37.37,0,0,1,.38.35V9.25a.39.39,0,0,1-.38.35Z"/><path class="cls-4" d="M32.05,9.63a.4.4,0,0,1-.4-.38V4a.4.4,0,0,1,.4-.38.39.39,0,0,1,.4.38V9.25A.41.41,0,0,1,32.05,9.63Zm0-5.93A.36.36,0,0,0,31.7,4V9.25a.34.34,0,0,0,.35.33.35.35,0,0,0,.35-.33V4A.37.37,0,0,0,32.05,3.7Z"/><path class="cls-3" d="M34.55,6.8a.38.38,0,0,1-.35-.37l.18-2.33a.37.37,0,0,1,.4-.33.39.39,0,0,1,.35.38L35,6.48a.35.35,0,0,1-.4.32Z"/><path class="cls-4" d="M34.55,6.83a.41.41,0,0,1-.37-.4l.17-2.33a.4.4,0,0,1,.8.05L35,6.48A.39.39,0,0,1,34.55,6.83Zm.23-3a.33.33,0,0,0-.35.3l-.18,2.33a.35.35,0,0,0,.33.34.33.33,0,0,0,.35-.29l.17-2.33a.37.37,0,0,0-.33-.35Z"/><path class="cls-3" d="M36.43,10.05a.38.38,0,0,1-.3-.42l1-5.13a.34.34,0,0,1,.43-.27.38.38,0,0,1,.3.42l-1,5.13a.36.36,0,0,1-.42.27Z"/><path class="cls-4" d="M36.43,10.08a.41.41,0,0,1-.33-.45l1-5.13a.4.4,0,0,1,.47-.3.41.41,0,0,1,.33.45l-1,5.13A.44.44,0,0,1,36.43,10.08ZM37.6,4.25a.36.36,0,0,0-.4.25l-1,5.13a.35.35,0,0,0,.27.4.36.36,0,0,0,.4-.26l1-5.12A.36.36,0,0,0,37.6,4.25Z"/><path class="cls-3" d="M39.43,7.8a.37.37,0,0,1-.28-.45h0l.63-2.25a.36.36,0,0,1,.45-.25.37.37,0,0,1,.27.45l-.62,2.25a.36.36,0,0,1-.45.25Z"/><path class="cls-4" d="M39.43,7.83a.4.4,0,0,1-.28-.48l.63-2.25a.39.39,0,0,1,.75.2L39.9,7.55a.39.39,0,0,1-.47.28Zm.82-2.93a.34.34,0,0,0-.42.23L39.2,7.37a.31.31,0,0,0,.25.4.34.34,0,0,0,.43-.22L40.5,5.3a.35.35,0,0,0-.25-.4Z"/><path class="cls-3" d="M40.65,11.33a.37.37,0,0,1-.2-.48l2-4.82a.34.34,0,0,1,.47-.18.35.35,0,0,1,.21.47l-2,4.83a.35.35,0,0,1-.48.18Z"/><path class="cls-4" d="M40.65,11.35a.38.38,0,0,1-.22-.5l2-4.82a.4.4,0,0,1,.75.3l-2,4.82A.4.4,0,0,1,40.65,11.35Zm2.28-5.47a.33.33,0,0,0-.45.17l-2,4.83a.31.31,0,0,0,.2.42.35.35,0,0,0,.45-.17l2-4.83a.35.35,0,0,0-.2-.42Z"/><path class="cls-3" d="M44,9.73a.37.37,0,0,1-.18-.48l1-2.07A.35.35,0,0,1,45.4,7a.37.37,0,0,1,.18.47L44.52,9.57a.35.35,0,0,1-.49.16Z"/><path class="cls-4" d="M44,9.75a.38.38,0,0,1-.18-.52l1-2.08A.4.4,0,0,1,45.43,7a.39.39,0,0,1,.17.53L44.55,9.57a.38.38,0,0,1-.52.18ZM45.4,7a.33.33,0,0,0-.45.14L43.9,9.25a.38.38,0,0,0,.15.45.33.33,0,0,0,.45-.15l1-2.07A.36.36,0,0,0,45.4,7Z"/><path class="cls-3" d="M44.53,13.43a.34.34,0,0,1-.1-.5l2.9-4.33a.36.36,0,0,1,.5-.1.35.35,0,0,1,.1.5L45,13.33A.35.35,0,0,1,44.53,13.43Z"/><path class="cls-4" d="M44.53,13.45a.43.43,0,0,1-.13-.55l2.9-4.33a.39.39,0,0,1,.55-.09A.43.43,0,0,1,48,9l-2.9,4.32A.4.4,0,0,1,44.53,13.45Zm3.3-4.92a.36.36,0,0,0-.48.07l-2.9,4.33a.31.31,0,0,0,.1.44A.35.35,0,0,0,45,13.3L47.93,9a.35.35,0,0,0-.1-.47Z"/><path class="cls-3" d="M48.17,12.5a.38.38,0,0,1-.07-.5l1.45-1.83a.36.36,0,0,1,.5,0,.35.35,0,0,1,.07.5l-1.44,1.82a.35.35,0,0,1-.5.05Z"/><path class="cls-4" d="M48.15,12.53a.41.41,0,0,1-.07-.56l1.45-1.82a.37.37,0,0,1,.55-.05.4.4,0,0,1,.07.55L48.7,12.48A.37.37,0,0,1,48.15,12.53ZM50,10.15a.34.34,0,0,0-.48,0L48.1,12a.36.36,0,0,0,.07.47.33.33,0,0,0,.48-.05l1.45-1.82a.37.37,0,0,0-.07-.48Z"/><path class="cls-3" d="M47.93,16.25a.33.33,0,0,1,0-.5l3.7-3.67a.35.35,0,1,1,.5.49l-3.68,3.68A.36.36,0,0,1,47.93,16.25Z"/><path class="cls-4" d="M47.9,16.28a.39.39,0,0,1,0-.55l3.7-3.68a.39.39,0,1,1,.55.55l-3.7,3.67a.39.39,0,0,1-.55,0Zm4.23-4.2a.34.34,0,0,0-.48,0L48,15.75a.34.34,0,1,0,.48.48l3.7-3.68a.35.35,0,0,0,0-.47Z"/><path class="cls-3" d="M51.68,16.05a.35.35,0,0,1,0-.5l1.78-1.5a.36.36,0,0,1,.47.55l-1.77,1.5A.35.35,0,0,1,51.68,16.05Z"/><path class="cls-4" d="M51.65,16.08a.39.39,0,0,1,0-.55L53.45,14a.37.37,0,0,1,.55.05.39.39,0,0,1,0,.55l-1.78,1.5a.39.39,0,0,1-.55-.05Zm2.3-2a.34.34,0,0,0-.47,0l-1.78,1.5a.35.35,0,0,0,0,.48.36.36,0,0,0,.47,0l1.78-1.51A.32.32,0,0,0,54,14.1Z"/><path class="cls-3" d="M50.68,19.65a.33.33,0,0,1,.1-.5l4.35-2.9a.38.38,0,0,1,.5.1.34.34,0,0,1-.1.5l-4.35,2.9A.39.39,0,0,1,50.68,19.65Z"/><path class="cls-4" d="M50.65,19.65a.41.41,0,0,1,.1-.55l4.35-2.9a.4.4,0,0,1,.45.67L51.2,19.78a.39.39,0,0,1-.55-.13Zm5-3.27a.32.32,0,0,0-.45-.1L50.8,19.17a.35.35,0,0,0,.38.58l4.35-2.9a.35.35,0,0,0,.07-.47Z"/><path class="cls-3" d="M54.4,20.18a.36.36,0,0,1,.13-.5l2-1.15a.37.37,0,0,1,.5.14.37.37,0,0,1-.12.5l-2,1.16a.37.37,0,0,1-.5-.16Z"/><path class="cls-4" d="M54.38,20.2a.38.38,0,0,1,.12-.52l2-1.15a.39.39,0,0,1,.4.67l-2,1.15a.4.4,0,0,1-.52-.15ZM57,18.7a.33.33,0,0,0-.45-.13l-2,1.16a.34.34,0,0,0-.12.44.31.31,0,0,0,.45.13l2-1.15A.35.35,0,0,0,57,18.7Z"/><path class="cls-3" d="M52.73,23.5a.34.34,0,0,1,.2-.47l4.82-2a.38.38,0,0,1,.48.2.35.35,0,0,1-.2.47l-4.83,2A.36.36,0,0,1,52.73,23.5Z"/><path class="cls-4" d="M52.7,23.52a.42.42,0,0,1,.2-.52l4.83-2a.39.39,0,0,1,.5.23.41.41,0,0,1-.2.52l-4.83,2a.38.38,0,0,1-.5-.22Zm5.48-2.27a.37.37,0,0,0-.43-.2l-4.82,2a.34.34,0,0,0-.18.45.36.36,0,0,0,.43.2l4.82-2A.34.34,0,0,0,58.18,21.25Z"/><path class="cls-3" d="M56.25,24.75a.36.36,0,0,1,.23-.47l2.2-.73a.36.36,0,0,1,.45.22.38.38,0,0,1-.23.48L56.7,25a.35.35,0,0,1-.45-.23Z"/><path class="cls-4" d="M56.23,24.77a.36.36,0,0,1,.25-.49l2.2-.73a.41.41,0,0,1,.5.25.39.39,0,0,1-.26.5L56.73,25A.43.43,0,0,1,56.23,24.77Zm2.9-.94a.35.35,0,0,0-.43-.23l-2.2.73a.33.33,0,0,0-.2.42.34.34,0,0,0,.43.22l2.2-.72a.34.34,0,0,0,.2-.42Z"/><path class="cls-3" d="M54,27.73a.35.35,0,0,1,.28-.43l5.12-1a.37.37,0,0,1,.43.3.35.35,0,0,1-.28.43l-5.12,1a.38.38,0,0,1-.43-.3Z"/><path class="cls-4" d="M54,27.73a.4.4,0,0,1,.3-.48l5.13-1a.39.39,0,0,1,.45.33.4.4,0,0,1-.3.47l-5.13,1a.39.39,0,0,1-.45-.33Zm5.83-1.13a.34.34,0,0,0-.38-.27l-5.12,1a.32.32,0,0,0-.25.4.33.33,0,0,0,.37.27l5.13-1a.34.34,0,0,0,.25-.4Z"/><path class="cls-3" d="M57.2,29.65a.35.35,0,0,1,.3-.4L59.8,29a.37.37,0,0,1,.4.33.34.34,0,0,1-.3.4L57.6,30a.38.38,0,0,1-.4-.32Z"/><path class="cls-4" d="M57.18,29.65a.4.4,0,0,1,.32-.45l2.3-.27a.39.39,0,0,1,.43.35.41.41,0,0,1-.33.45L57.6,30a.38.38,0,0,1-.42-.35Zm3-.35a.35.35,0,0,0-.37-.3l-2.3.28a.33.33,0,0,0-.28.37.35.35,0,0,0,.38.3l2.3-.27a.34.34,0,0,0,.27-.38Z"/><path class="cls-3" d="M54.4,32.08a.37.37,0,0,1,.35-.38H60a.37.37,0,0,1,.35.38.36.36,0,0,1-.35.37H54.75A.36.36,0,0,1,54.4,32.08Z"/><path class="cls-4" d="M54.38,32.08a.38.38,0,0,1,.37-.4H60a.38.38,0,0,1,.37.4.39.39,0,0,1-.37.4H54.75A.39.39,0,0,1,54.38,32.08Zm5.92,0a.36.36,0,0,0-.33-.35H54.75a.34.34,0,0,0-.32.35.35.35,0,0,0,.32.35H60a.36.36,0,0,0,.32-.35Z"/><path class="cls-3" d="M57.18,34.6a.37.37,0,0,1,.37-.35l2.33.18a.35.35,0,0,1,.32.4.36.36,0,0,1-.37.34L57.5,35a.42.42,0,0,1-.33-.4Z"/><path class="cls-4" d="M57.15,34.6a.4.4,0,0,1,.4-.37l2.33.17a.4.4,0,0,1,.35.43.41.41,0,0,1-.4.37L57.5,35a.44.44,0,0,1-.35-.43Zm3.05.23a.31.31,0,0,0-.3-.35l-2.33-.18a.35.35,0,0,0-.34.33.3.3,0,0,0,.3.34l2.32.18A.36.36,0,0,0,60.2,34.83Z"/><path class="cls-3" d="M54,36.43a.39.39,0,0,1,.43-.3l5.12,1a.35.35,0,0,1,.28.42.4.4,0,0,1-.43.31l-5.12-1a.37.37,0,0,1-.28-.42Z"/><path class="cls-4" d="M53.93,36.43a.41.41,0,0,1,.45-.33l5.12,1a.39.39,0,0,1,.3.47.41.41,0,0,1-.45.33l-5.12-1a.42.42,0,0,1-.3-.47Zm5.82,1.17a.35.35,0,0,0-.25-.4l-5.13-1a.37.37,0,0,0-.4.28.36.36,0,0,0,.26.4l5.12,1A.37.37,0,0,0,59.75,37.6Z"/><path class="cls-3" d="M56.2,39.43a.37.37,0,0,1,.45-.28h0l2.25.62a.38.38,0,0,1-.2.73h0l-2.25-.62a.36.36,0,0,1-.25-.45Z"/><path class="cls-4" d="M56.17,39.43a.4.4,0,0,1,.48-.28l2.25.62a.41.41,0,0,1,.28.48.39.39,0,0,1-.48.28l-2.25-.63a.37.37,0,0,1-.27-.47Zm2.93.82a.35.35,0,0,0-.22-.42l-2.25-.63a.32.32,0,0,0-.4.25.35.35,0,0,0,.22.43l2.25.62A.35.35,0,0,0,59.1,40.25Z"/><path class="cls-3" d="M52.68,40.63a.35.35,0,0,1,.47-.2l4.83,2a.38.38,0,0,1,.2.47.37.37,0,0,1-.48.2l-4.82-2a.35.35,0,0,1-.2-.47Z"/><path class="cls-4" d="M52.65,40.6a.4.4,0,0,1,.5-.23l4.83,2a.41.41,0,0,1,.2.53.4.4,0,0,1-.5.23l-4.83-2A.43.43,0,0,1,52.65,40.6Zm5.48,2.28a.34.34,0,0,0-.18-.45l-4.82-2a.32.32,0,0,0-.43.2.34.34,0,0,0,.18.45l4.82,2A.34.34,0,0,0,58.13,42.88Z"/><path class="cls-3" d="M54.3,44a.37.37,0,0,1,.47-.17l2.08,1.05a.34.34,0,0,1,.15.49.37.37,0,0,1-.47.18l-2.08-1A.38.38,0,0,1,54.3,44Z"/><path class="cls-4" d="M54.28,44a.37.37,0,0,1,.52-.17l2.08,1.05a.38.38,0,0,1,.17.52.38.38,0,0,1-.52.18l-2.08-1A.38.38,0,0,1,54.28,44ZM57,45.35a.33.33,0,0,0-.15-.45l-2.08-1a.38.38,0,0,0-.45.15.34.34,0,0,0,.15.45l2.07,1a.34.34,0,0,0,.46-.15Z"/><path class="cls-3" d="M50.63,44.48a.34.34,0,0,1,.5-.11l4.35,2.91a.35.35,0,0,1,.1.49.35.35,0,0,1-.5.11L50.73,45A.33.33,0,0,1,50.63,44.48Z"/><path class="cls-4" d="M50.6,44.45a.44.44,0,0,1,.55-.12l4.35,2.9a.37.37,0,0,1,.1.54.43.43,0,0,1-.55.13L50.7,45A.38.38,0,0,1,50.6,44.45Zm4.93,3.3a.34.34,0,0,0-.08-.47L51.1,44.37a.34.34,0,0,0-.45.11.35.35,0,0,0,.07.47l4.36,2.9a.33.33,0,0,0,.45-.1Z"/><path class="cls-3" d="M51.55,48.1a.36.36,0,0,1,.5-.07l1.83,1.42a.36.36,0,0,1,0,.5.37.37,0,0,1-.5.08L51.6,48.6A.36.36,0,0,1,51.55,48.1Z"/><path class="cls-4" d="M51.53,48.08a.39.39,0,0,1,.55-.08l1.82,1.43A.37.37,0,0,1,54,50a.38.38,0,0,1-.54.08L51.6,48.63A.4.4,0,0,1,51.53,48.08ZM53.93,50a.33.33,0,0,0,0-.47l-1.83-1.43a.36.36,0,0,0-.47.07.33.33,0,0,0,.05.48L53.45,50a.35.35,0,0,0,.47-.08Z"/><path class="cls-3" d="M47.83,47.85a.33.33,0,0,1,.5,0L52,51.52A.37.37,0,0,1,52,52a.35.35,0,0,1-.5,0l-3.7-3.68a.37.37,0,0,1,0-.5Z"/><path class="cls-4" d="M47.83,47.83a.38.38,0,0,1,.55,0l3.7,3.67a.39.39,0,0,1-.55.55l-3.7-3.67a.35.35,0,0,1,0-.55ZM52,52a.35.35,0,0,0,0-.47l-3.7-3.68a.37.37,0,0,0-.48,0,.35.35,0,0,0,0,.47L51.55,52A.31.31,0,0,0,52,52Z"/><path class="cls-3" d="M48.05,51.57a.36.36,0,0,1,.5,0l1.53,1.75a.36.36,0,0,1,0,.5.37.37,0,0,1-.5,0L48,52.08A.38.38,0,0,1,48.05,51.57Z"/><path class="cls-4" d="M48,51.57a.39.39,0,0,1,.54,0l1.53,1.75a.37.37,0,0,1-.05.55.39.39,0,0,1-.55,0L48,52.13a.41.41,0,0,1,.06-.56Zm2,2.28a.37.37,0,0,0,0-.47l-1.53-1.75a.34.34,0,0,0-.47,0,.34.34,0,0,0,0,.47l1.52,1.76a.34.34,0,0,0,.48,0Z"/><path class="cls-3" d="M44.45,50.63a.33.33,0,0,1,.5.1l2.9,4.32a.38.38,0,0,1-.1.5.33.33,0,0,1-.5-.1l-2.9-4.33a.37.37,0,0,1,.1-.49Z"/><path class="cls-4" d="M44.45,50.6a.41.41,0,0,1,.55.1L47.9,55a.38.38,0,0,1-.12.54.4.4,0,0,1-.55-.09l-2.9-4.33a.38.38,0,0,1,.12-.55Zm3.3,4.93a.33.33,0,0,0,.1-.45L45,50.75a.33.33,0,0,0-.47-.07.32.32,0,0,0-.1.45l2.9,4.32a.36.36,0,0,0,.47.07Z"/><path class="cls-3" d="M43.93,54.32a.38.38,0,0,1,.5.13l1.15,2a.36.36,0,0,1-.15.49.35.35,0,0,1-.5-.12l-1.15-2a.39.39,0,0,1,.14-.5Z"/><path class="cls-4" d="M43.93,54.3a.38.38,0,0,1,.52.13l1.15,2a.39.39,0,0,1-.67.4l-1.15-2a.4.4,0,0,1,.14-.53ZM45.43,57a.33.33,0,0,0,.12-.45l-1.15-2a.37.37,0,0,0-.45-.13.33.33,0,0,0-.12.45l1.15,2a.33.33,0,0,0,.45.12Z"/><path class="cls-3" d="M40.6,52.68a.36.36,0,0,1,.48.17l2,4.83a.37.37,0,0,1-.2.47.36.36,0,0,1-.47-.18l-2-4.82a.38.38,0,0,1,.2-.47Z"/><path class="cls-4" d="M40.6,52.65a.43.43,0,0,1,.53.2l2,4.83a.37.37,0,0,1-.22.49.42.42,0,0,1-.53-.2l-2-4.82a.4.4,0,0,1,.22-.5Zm2.28,5.48a.32.32,0,0,0,.17-.43l-2-4.82a.34.34,0,0,0-.45-.18.32.32,0,0,0-.18.43l2,4.82A.35.35,0,0,0,42.88,58.13Z"/><path class="cls-3" d="M39.37,56.23a.36.36,0,0,1,.48.22l.73,2.2a.37.37,0,0,1-.7.23l-.73-2.2a.35.35,0,0,1,.23-.45Z"/><path class="cls-4" d="M39.35,56.2a.39.39,0,0,1,.5.23l.73,2.2a.41.41,0,0,1-.26.5.38.38,0,0,1-.49-.23l-.73-2.2a.43.43,0,0,1,.25-.5Zm1,2.87a.34.34,0,0,0,.22-.42l-.72-2.2a.34.34,0,0,0-.43-.2.35.35,0,0,0-.22.43l.72,2.2a.32.32,0,0,0,.39.21h0Z"/><path class="cls-3" d="M36.43,54a.33.33,0,0,1,.42.28l1,5.12a.36.36,0,0,1-.3.42.32.32,0,0,1-.42-.27l-1.06-5.13a.41.41,0,0,1,.31-.42Z"/><path class="cls-4" d="M36.43,53.92a.41.41,0,0,1,.47.31L38,59.35a.38.38,0,0,1-.3.45.4.4,0,0,1-.47-.3l-1.06-5.13a.37.37,0,0,1,.31-.44Zm1.17,5.83a.35.35,0,0,0,.28-.4l-1.05-5.12a.34.34,0,0,0-.4-.26.35.35,0,0,0-.28.4L37.2,59.5a.36.36,0,0,0,.4.25Z"/><path class="cls-3" d="M34.53,57.2a.38.38,0,0,1,.42.3l.3,2.3a.36.36,0,0,1-.33.4.38.38,0,0,1-.42-.3l-.3-2.3A.37.37,0,0,1,34.53,57.2Z"/><path class="cls-4" d="M34.53,57.17a.41.41,0,0,1,.45.33l.3,2.3a.4.4,0,0,1-.8.1l-.3-2.3A.39.39,0,0,1,34.53,57.17Zm.37,3a.34.34,0,0,0,.3-.37l-.3-2.3a.33.33,0,0,0-.37-.27.34.34,0,0,0-.3.37l.3,2.3A.32.32,0,0,0,34.9,60.17Z"/><path class="cls-3" d="M32,54.4a.37.37,0,0,1,.38.35V60a.38.38,0,0,1-.38.36.37.37,0,0,1-.37-.36V54.75A.37.37,0,0,1,32,54.4Z"/><path class="cls-4" d="M32,54.37a.39.39,0,0,1,.4.38V60a.39.39,0,0,1-.4.38.4.4,0,0,1-.4-.38V54.75A.41.41,0,0,1,32,54.37Zm0,5.93A.35.35,0,0,0,32.3,60V54.75a.33.33,0,0,0-.35-.32.35.35,0,0,0-.35.32V60A.38.38,0,0,0,32,60.3Z"/><path class="cls-3" d="M29.45,57.2a.38.38,0,0,1,.35.37l-.17,2.33a.37.37,0,0,1-.4.33.39.39,0,0,1-.35-.38l.17-2.33A.37.37,0,0,1,29.45,57.2Z"/><path class="cls-4" d="M29.45,57.17a.41.41,0,0,1,.38.4l-.18,2.33a.38.38,0,0,1-.42.35.4.4,0,0,1-.38-.4L29,57.52A.38.38,0,0,1,29.45,57.17Zm-.22,3a.33.33,0,0,0,.35-.3l.17-2.33a.34.34,0,0,0-.32-.34.33.33,0,0,0-.35.3l-.18,2.32a.37.37,0,0,0,.33.35Z"/><path class="cls-3" d="M27.58,54a.38.38,0,0,1,.3.42l-1,5.13a.33.33,0,0,1-.42.27.37.37,0,0,1-.3-.42l1-5.12A.39.39,0,0,1,27.58,54Z"/><path class="cls-4" d="M27.58,53.92a.41.41,0,0,1,.32.45l-1,5.13a.41.41,0,0,1-.8-.15l1-5.12a.42.42,0,0,1,.47-.3ZM26.4,59.75a.36.36,0,0,0,.4-.25l1-5.13a.35.35,0,0,0-.68-.14l-1,5.12A.36.36,0,0,0,26.4,59.75Z"/><path class="cls-3" d="M24.57,56.2a.37.37,0,0,1,.28.45l-.62,2.25a.36.36,0,0,1-.45.25.38.38,0,0,1-.28-.45h0l.63-2.25a.36.36,0,0,1,.45-.25Z"/><path class="cls-4" d="M24.57,56.18a.37.37,0,0,1,.28.47l-.62,2.25a.39.39,0,0,1-.48.27.36.36,0,0,1-.27-.47l.62-2.25a.39.39,0,0,1,.47-.28Zm-.82,2.92a.35.35,0,0,0,.43-.22l.62-2.25a.32.32,0,0,0-.25-.4.34.34,0,0,0-.42.22L23.5,58.7A.36.36,0,0,0,23.75,59.1Z"/><path class="cls-3" d="M23.35,52.68a.35.35,0,0,1,.2.47l-2,4.82a.34.34,0,0,1-.47.18.38.38,0,0,1-.2-.47l2-4.83a.34.34,0,0,1,.47-.17Z"/><path class="cls-4" d="M23.35,52.65a.4.4,0,0,1,.23.5l-2,4.82a.4.4,0,0,1-.53.2.37.37,0,0,1-.22-.49l2-4.83A.39.39,0,0,1,23.35,52.65Zm-2.27,5.48a.34.34,0,0,0,.45-.18l2-4.82a.33.33,0,0,0-.2-.43.34.34,0,0,0-.45.18l-2,4.82A.36.36,0,0,0,21.08,58.13Z"/><path class="cls-3" d="M20,54.28a.36.36,0,0,1,.17.47l-1,2.08a.36.36,0,0,1-.5.14.36.36,0,0,1-.17-.47l1.05-2.07A.35.35,0,0,1,20,54.28Z"/><path class="cls-4" d="M20,54.25a.38.38,0,0,1,.17.52l-1,2.08a.38.38,0,0,1-.52.18.39.39,0,0,1-.18-.53l1.05-2.07A.39.39,0,0,1,20,54.25ZM18.6,57a.33.33,0,0,0,.45-.15l1.05-2.08A.38.38,0,0,0,20,54.3a.34.34,0,0,0-.45.15l-1.05,2.07a.37.37,0,0,0,.15.45Z"/><path class="cls-3" d="M19.48,50.58a.35.35,0,0,1,.1.5l-2.9,4.32a.36.36,0,0,1-.5.1.34.34,0,0,1-.1-.5L19,50.67a.34.34,0,0,1,.5-.1Z"/><path class="cls-4" d="M19.48,50.55a.44.44,0,0,1,.12.55l-2.9,4.33a.4.4,0,0,1-.55.1A.45.45,0,0,1,16,55l2.9-4.32a.41.41,0,0,1,.55-.1Zm-3.3,4.93a.36.36,0,0,0,.47-.08l2.9-4.32a.33.33,0,0,0-.1-.45.34.34,0,0,0-.47.07L16.08,55a.35.35,0,0,0,.1.47Z"/><path class="cls-3" d="M15.83,51.5a.36.36,0,0,1,.07.5l-1.45,1.83a.37.37,0,0,1-.5.05.37.37,0,0,1-.07-.51l1.45-1.82A.35.35,0,0,1,15.83,51.5Z"/><path class="cls-4" d="M15.85,51.48a.38.38,0,0,1,.07.55l-1.44,1.82a.37.37,0,0,1-.55,0,.4.4,0,0,1-.08-.55l1.45-1.82A.37.37,0,0,1,15.85,51.48ZM14,53.85a.33.33,0,0,0,.47-.05L15.9,52a.36.36,0,0,0-.07-.47.33.33,0,0,0-.48,0L13.9,53.37a.36.36,0,0,0,.07.48Z"/><path class="cls-3" d="M16.08,47.75a.33.33,0,0,1,0,.5l-3.7,3.67a.35.35,0,0,1-.5-.49l3.67-3.68A.37.37,0,0,1,16.08,47.75Z"/><path class="cls-4" d="M16.1,47.73a.38.38,0,0,1,0,.54L12.4,52a.39.39,0,0,1-.55-.55l3.7-3.67A.39.39,0,0,1,16.1,47.73Zm-4.22,4.19a.33.33,0,0,0,.47,0l3.7-3.67a.34.34,0,0,0,0-.48.35.35,0,0,0-.47,0l-3.7,3.68a.33.33,0,0,0,0,.47Z"/><path class="cls-3" d="M12.33,48a.36.36,0,0,1,0,.5L10.53,50a.37.37,0,0,1-.48-.55l1.78-1.5A.35.35,0,0,1,12.33,48Z"/><path class="cls-4" d="M12.35,47.92a.4.4,0,0,1,0,.56L10.55,50a.37.37,0,0,1-.55,0,.4.4,0,0,1,0-.56l1.77-1.49a.37.37,0,0,1,.55,0Zm-2.3,2a.34.34,0,0,0,.47.05l1.78-1.5a.34.34,0,0,0,0-.47.36.36,0,0,0-.48,0l-1.77,1.5a.32.32,0,0,0,0,.47Z"/><path class="cls-3" d="M13.33,44.35a.34.34,0,0,1-.1.5l-4.35,2.9a.38.38,0,0,1-.5-.1.33.33,0,0,1,.1-.5l4.35-2.9a.39.39,0,0,1,.5.1Z"/><path class="cls-4" d="M13.35,44.35a.39.39,0,0,1-.1.55L8.9,47.8a.39.39,0,0,1-.55-.12.41.41,0,0,1,.1-.55l4.35-2.9a.38.38,0,0,1,.55.12ZM8.4,47.63a.33.33,0,0,0,.45.1l4.35-2.9a.33.33,0,0,0,.08-.48.33.33,0,0,0-.45-.1l-4.35,2.9a.36.36,0,0,0-.08.48Z"/><path class="cls-3" d="M9.6,43.83a.37.37,0,0,1-.12.5l-2,1.15a.39.39,0,0,1-.5-.15.36.36,0,0,1,.13-.5l2-1.15a.36.36,0,0,1,.5.15Z"/><path class="cls-4" d="M9.63,43.8a.39.39,0,0,1-.13.53l-2,1.15A.42.42,0,0,1,7,45.33a.39.39,0,0,1,.13-.53l2-1.15a.41.41,0,0,1,.53.15ZM7,45.3a.32.32,0,0,0,.46.13l2-1.15a.37.37,0,0,0,.13-.45.31.31,0,0,0-.45-.13l-2,1.15A.34.34,0,0,0,7,45.3Z"/><path class="cls-3" d="M11.28,40.5a.35.35,0,0,1-.2.47L6.25,43a.36.36,0,0,1-.47-.2A.34.34,0,0,1,6,42.3l4.82-2a.37.37,0,0,1,.48.2Z"/><path class="cls-4" d="M11.3,40.48a.41.41,0,0,1-.2.52L6.28,43a.38.38,0,0,1-.5-.23.4.4,0,0,1,.2-.52l4.82-2a.39.39,0,0,1,.5.23ZM5.83,42.75a.34.34,0,0,0,.42.2l4.83-2a.33.33,0,0,0,.17-.45.35.35,0,0,0-.42-.2L6,42.3a.33.33,0,0,0-.17.45Z"/><path class="cls-3" d="M7.75,39.25a.35.35,0,0,1-.22.47l-2.2.73a.36.36,0,0,1-.45-.22.36.36,0,0,1,.22-.48L7.3,39A.33.33,0,0,1,7.75,39.25Z"/><path class="cls-4" d="M7.77,39.23a.38.38,0,0,1-.24.5l-2.2.72a.4.4,0,0,1-.5-.25.37.37,0,0,1,.25-.5L7.28,39a.44.44,0,0,1,.5.26Zm-2.89,1a.35.35,0,0,0,.42.22l2.2-.72a.33.33,0,0,0,.2-.43A.35.35,0,0,0,7.28,39l-2.2.72A.35.35,0,0,0,4.88,40.18Z"/><path class="cls-3" d="M10,36.28a.33.33,0,0,1-.27.42l-5.13,1a.36.36,0,0,1-.42-.3A.34.34,0,0,1,4.45,37l5.13-1a.37.37,0,0,1,.42.31Z"/><path class="cls-4" d="M10.05,36.28a.4.4,0,0,1-.3.47l-5.12,1a.39.39,0,0,1-.45-.32.4.4,0,0,1,.3-.48L9.6,36A.39.39,0,0,1,10.05,36.28ZM4.23,37.4a.34.34,0,0,0,.37.28l5.13-1A.35.35,0,0,0,9.6,36L4.48,37a.34.34,0,0,0-.25.4Z"/><path class="cls-3" d="M6.8,34.35a.34.34,0,0,1-.3.4L4.2,35a.37.37,0,0,1-.4-.33.35.35,0,0,1,.3-.4L6.4,34A.37.37,0,0,1,6.8,34.35Z"/><path class="cls-4" d="M6.83,34.35a.41.41,0,0,1-.33.45l-2.3.28a.4.4,0,0,1-.1-.8L6.4,34a.4.4,0,0,1,.43.35Zm-3,.35a.35.35,0,0,0,.38.3l2.3-.27a.34.34,0,0,0,.27-.38.35.35,0,0,0-.37-.3l-2.3.28A.33.33,0,0,0,3.8,34.7Z"/><path class="cls-3" d="M9.6,31.92a.36.36,0,0,1-.35.38H4a.36.36,0,0,1-.35-.37A.37.37,0,0,1,4,31.55H9.25a.37.37,0,0,1,.35.38Z"/><path class="cls-4" d="M9.63,31.92a.39.39,0,0,1-.38.4H4a.39.39,0,0,1-.38-.4.4.4,0,0,1,.38-.4H9.25a.4.4,0,0,1,.38.4Zm-5.93,0a.35.35,0,0,0,.33.35H9.25a.34.34,0,0,0,.33-.35.36.36,0,0,0-.33-.35H4a.37.37,0,0,0-.33.35Z"/><path class="cls-5" d="M6.83,29.4a.39.39,0,0,1-.38.35l-2.33-.18a.37.37,0,0,1-.32-.4.38.38,0,0,1,.38-.34L6.5,29A.41.41,0,0,1,6.83,29.4Z"/><path class="cls-4" d="M6.85,29.4a.39.39,0,0,1-.4.37L4.12,29.6a.39.39,0,0,1-.34-.43.4.4,0,0,1,.4-.37L6.5,29a.44.44,0,0,1,.35.43Zm-3-.23a.33.33,0,0,0,.3.36l2.33.17a.36.36,0,0,0,.35-.33.32.32,0,0,0-.3-.34l-2.33-.18a.38.38,0,0,0-.35.33Z"/><path class="cls-3" d="M10.05,27.57a.39.39,0,0,1-.42.31L4.5,26.83a.35.35,0,0,1-.27-.43.38.38,0,0,1,.42-.3l5.13,1a.4.4,0,0,1,.27.44Z"/><path class="cls-4" d="M10.08,27.57a.4.4,0,0,1-.45.33l-5.13-1a.4.4,0,0,1-.3-.48.4.4,0,0,1,.45-.32l5.13,1a.43.43,0,0,1,.3.47ZM4.25,26.4a.36.36,0,0,0,.25.4l5.13,1a.35.35,0,0,0,.14-.68l-5.12-1a.36.36,0,0,0-.4.27Z"/><path class="cls-3" d="M7.8,24.58a.37.37,0,0,1-.45.27h0L5.1,24.23a.38.38,0,0,1,.2-.73h0l2.25.63a.34.34,0,0,1,.25.44Z"/><path class="cls-4" d="M7.83,24.58a.39.39,0,0,1-.48.27L5.1,24.23a.4.4,0,0,1-.27-.48.37.37,0,0,1,.47-.27l2.25.62a.39.39,0,0,1,.28.47ZM4.9,23.75a.34.34,0,0,0,.23.42l2.25.63a.32.32,0,0,0,.4-.25.35.35,0,0,0-.23-.43L5.3,23.5a.35.35,0,0,0-.4.25Z"/><path class="cls-3" d="M11.33,23.38a.36.36,0,0,1-.48.19L6,21.57a.36.36,0,0,1-.2-.47.36.36,0,0,1,.47-.2l4.83,2a.36.36,0,0,1,.2.47Z"/><path class="cls-4" d="M11.35,23.4a.4.4,0,0,1-.5.23L6,21.63a.4.4,0,0,1-.2-.53.38.38,0,0,1,.5-.22l4.82,2A.4.4,0,0,1,11.35,23.4ZM5.88,21.13a.33.33,0,0,0,.17.44l4.83,2a.31.31,0,0,0,.42-.2.33.33,0,0,0-.17-.44l-4.83-2a.33.33,0,0,0-.42.2Z"/><path class="cls-3" d="M9.7,20a.37.37,0,0,1-.47.17l-2.08-1a.36.36,0,0,1-.15-.5.37.37,0,0,1,.48-.18L9.55,19.5a.37.37,0,0,1,.15.5Z"/><path class="cls-4" d="M9.73,20a.39.39,0,0,1-.53.17L7.13,19.15A.38.38,0,0,1,7,18.63a.39.39,0,0,1,.53-.18L9.55,19.5a.38.38,0,0,1,.18.53ZM7,18.65a.32.32,0,0,0,.15.45l2.07,1A.36.36,0,0,0,9.7,20a.33.33,0,0,0-.15-.45L7.45,18.5a.32.32,0,0,0-.43.15Z"/><path class="cls-3" d="M13.37,19.52a.33.33,0,0,1-.49.11L8.55,16.75a.36.36,0,0,1-.1-.5.35.35,0,0,1,.5-.1l4.35,2.9a.32.32,0,0,1,.07.47Z"/><path class="cls-4" d="M13.4,19.55a.44.44,0,0,1-.55.13L8.53,16.77a.37.37,0,0,1-.1-.54A.43.43,0,0,1,9,16.1L13.3,19a.37.37,0,0,1,.1.55Zm-4.92-3.3a.34.34,0,0,0,.07.47l4.35,2.91a.33.33,0,0,0,.45-.1.36.36,0,0,0-.07-.48l-4.36-2.9a.33.33,0,0,0-.45.1Z"/><path class="cls-3" d="M12.45,15.9A.35.35,0,0,1,12,16l-1.82-1.42a.36.36,0,0,1,.45-.57L12.4,15.4A.35.35,0,0,1,12.45,15.9Z"/><path class="cls-4" d="M12.48,15.92a.39.39,0,0,1-.55.08L10.1,14.58A.4.4,0,0,1,10,14a.38.38,0,0,1,.54-.08l1.83,1.43a.39.39,0,0,1,.08.55Zm-2.4-1.87a.32.32,0,0,0,.05.47L12,16a.36.36,0,0,0,.48-.07.34.34,0,0,0,0-.48L10.55,14a.36.36,0,0,0-.47.08Z"/><path class="cls-3" d="M16.17,16.15a.32.32,0,0,1-.49,0L12,12.48A.37.37,0,0,1,12,12a.35.35,0,0,1,.5,0l3.7,3.68a.36.36,0,0,1,0,.5Z"/><path class="cls-4" d="M16.17,16.18a.38.38,0,0,1-.54,0L11.92,12.5a.39.39,0,0,1,.55-.55l3.7,3.67a.35.35,0,0,1,0,.55ZM12,12a.33.33,0,0,0,0,.47l3.7,3.68a.35.35,0,0,0,.47,0,.34.34,0,0,0,0-.48L12.45,12A.33.33,0,0,0,12,12Z"/><path class="cls-3" d="M16,12.43a.36.36,0,0,1-.5,0l-1.53-1.75a.36.36,0,0,1,.06-.5.37.37,0,0,1,.5,0L16,11.93a.36.36,0,0,1-.05.5Z"/><path class="cls-4" d="M16,12.43a.4.4,0,0,1-.55,0L13.9,10.65a.38.38,0,0,1,0-.55.38.38,0,0,1,.55,0L16,11.87A.41.41,0,0,1,16,12.43Zm-2-2.28a.36.36,0,0,0-.05.48l1.52,1.74a.34.34,0,0,0,.53-.44l-1.53-1.76a.33.33,0,0,0-.47,0Z"/><path class="cls-3" d="M19.55,13.38a.35.35,0,0,1-.5-.1L16.13,9a.38.38,0,0,1,.1-.5.35.35,0,0,1,.5.1l2.9,4.33a.35.35,0,0,1-.08.49Z"/><path class="cls-4" d="M19.55,13.4a.4.4,0,0,1-.55-.1L16.1,9a.38.38,0,0,1,.13-.54.39.39,0,0,1,.55.1l2.9,4.32A.38.38,0,0,1,19.55,13.4Zm-3.3-4.92a.32.32,0,0,0-.1.45l2.9,4.32a.33.33,0,0,0,.47.07.31.31,0,0,0,.1-.44L16.73,8.57a.36.36,0,0,0-.48-.09Z"/><path class="cls-3" d="M20.08,9.68a.37.37,0,0,1-.5-.13l-1.15-2a.37.37,0,0,1,.15-.5.36.36,0,0,1,.5.12l1.15,2a.42.42,0,0,1-.15.51Z"/><path class="cls-4" d="M20.08,9.7a.39.39,0,0,1-.53-.13l-1.15-2A.37.37,0,0,1,18.55,7a.39.39,0,0,1,.53.12l1.15,2a.39.39,0,0,1-.15.53Zm-1.5-2.65a.34.34,0,0,0-.13.45l1.15,2a.36.36,0,0,0,.45.12.34.34,0,0,0,.13-.45L19,7.17a.34.34,0,0,0-.45-.12Z"/><path class="cls-3" d="M23.4,11.33a.35.35,0,0,1-.47-.18l-2-4.83a.38.38,0,0,1,.2-.47.35.35,0,0,1,.47.17l2,4.83a.36.36,0,0,1-.2.47Z"/><path class="cls-4" d="M23.4,11.35a.4.4,0,0,1-.52-.2l-2-4.82a.38.38,0,0,1,.23-.5.4.4,0,0,1,.52.2l2,4.82a.41.41,0,0,1-.23.5ZM21.13,5.88A.32.32,0,0,0,21,6.3l2,4.82a.34.34,0,0,0,.45.18.32.32,0,0,0,.18-.43l-2-4.82a.35.35,0,0,0-.45-.18Z"/><path class="cls-3" d="M24.63,7.78a.38.38,0,0,1-.48-.23l-.72-2.2a.35.35,0,0,1,.22-.45.39.39,0,0,1,.47.23l.73,2.2a.34.34,0,0,1-.22.44Z"/><path class="cls-4" d="M24.65,7.8a.39.39,0,0,1-.5-.23l-.72-2.2a.4.4,0,0,1,.75-.27l.72,2.2A.42.42,0,0,1,24.65,7.8Zm-1-2.87a.33.33,0,0,0-.23.42l.73,2.2a.33.33,0,0,0,.42.2.34.34,0,0,0,.23-.42L24.1,5.12a.32.32,0,0,0-.39-.21h0Z"/><path class="cls-3" d="M27.58,10.05a.34.34,0,0,1-.43-.28l-1-5.12a.36.36,0,0,1,.3-.42.33.33,0,0,1,.43.27l1.05,5.13A.4.4,0,0,1,27.58,10.05Z"/><path class="cls-4" d="M27.58,10.08a.41.41,0,0,1-.48-.31L26.05,4.65a.38.38,0,0,1,.3-.45.4.4,0,0,1,.48.3l1.05,5.13a.37.37,0,0,1-.3.45ZM26.4,4.25a.35.35,0,0,0-.27.4l1.05,5.13a.32.32,0,0,0,.4.25.35.35,0,0,0,.27-.4L26.8,4.5a.37.37,0,0,0-.4-.25Z"/><path class="cls-3" d="M29.48,6.8a.39.39,0,0,1-.43-.3l-.3-2.3a.38.38,0,0,1,.75-.1l.3,2.3a.36.36,0,0,1-.32.4Z"/><path class="cls-4" d="M29.48,6.83A.4.4,0,0,1,29,6.5l-.3-2.3a.39.39,0,0,1,.35-.43.41.41,0,0,1,.45.33l.3,2.3A.4.4,0,0,1,29.48,6.83Zm-.38-3a.35.35,0,0,0-.3.37l.3,2.3a.33.33,0,0,0,.38.27.36.36,0,0,0,.3-.37l-.3-2.3a.34.34,0,0,0-.38-.27Z"/><circle class="cls-6" cx="32.18" cy="31.97" r="29.6"/><path class="cls-7" d="M52.68,13.2,28.8,28.5h0v0l0,0L13.85,53.13,35.75,35.5l0,0v0L52.68,13.2Z"/><path class="cls-8" d="M52.23,11.77,28.63,28.55l7,7,16.6-23.73"/><path class="cls-9" d="M28.65,28.5,32.18,32l20-20.2L28.65,28.5Z"/><path class="cls-10" d="M28.65,28.5l7,7L12.05,52.23,28.65,28.5Z"/><path class="cls-11" d="M12.05,52.23,32.17,32,28.65,28.5,12.05,52.23Z"/></g></g></svg>