<svg xmlns="http://www.w3.org/2000/svg" viewBox="0 0 64 64.01"><defs><style>.cls-1{fill:#0f7c10;}</style></defs><title>Asset 11</title><g id="Layer_2" data-name="Layer 2"><g id="Layer_1-2" data-name="Layer 1"><path class="cls-1" d="M9.55,9.2l0,0h0a32,32,0,0,0-3,42.16.14.14,0,0,0,.17,0c.06,0,.06-.1,0-.17-2.44-7.54,10-25.82,16.47-33.49a.13.13,0,0,0,.05-.09.15.15,0,0,0-.06-.11C12.37,6.8,9.48,9.26,9.52,9.23m44.93,0,0,0h0a32,32,0,0,1,3,42.16.14.14,0,0,1-.17,0c-.06,0-.06-.1,0-.17,2.44-7.54-10-25.84-16.46-33.5a.19.19,0,0,1,0-.1.13.13,0,0,1,.06-.1C51.64,6.78,54.52,9.26,54.48,9.23M32,0A31.58,31.58,0,0,1,48.67,4.68a.12.12,0,0,1,0,.16c0,.06-.09.07-.15.06-6.19-1.34-15.61,4-16.5,4.54a.1.1,0,0,1-.14,0C29.57,8.09,20.86,3.53,15.38,4.93a.12.12,0,0,1-.1-.22A31.56,31.56,0,0,1,32,0m0,25.67a.16.16,0,0,1,.1,0c9.58,7.28,26,25.28,21,30.37h0a32,32,0,0,1-42.13,0h0C5.94,51,22.32,33,31.89,25.72a.22.22,0,0,1,.11,0"/></g></g></svg>