<svg xmlns="http://www.w3.org/2000/svg" viewBox="0 0 320 319.98"><defs><style>.cls-1{fill:#cbd1d7;}</style></defs><title>Asset 25</title><g id="Layer_2" data-name="Layer 2"><g id="Layer_2-2" data-name="Layer 2"><path class="cls-1" d="M273.3,46.86c52.39,52.36,61.82,135.49,22.61,198.08l15.51,57.78L256.4,288C193,335.72,103.18,329.46,46.88,273.18c-62.47-62.44-62.51-164-.08-226.41S210.83-15.59,273.3,46.86Zm30.78,248.52-13.77-51.3.61-1c38.62-60.66,29.66-141.66-21.29-192.6C209.18-9.9,110.87-9.93,50.47,50.44s-60.37,158.65.07,219.07c54.78,54.75,142.36,60.58,203.72,13.56l1-.78Zm-48.24-10.25,0,0Z"/></g></g></svg>