<svg id="Layer_1" xmlns="http://www.w3.org/2000/svg" xmlns:xlink="http://www.w3.org/1999/xlink" viewBox="0 0 220 238"><style>.st1{fill:#ffcab3}.st2{fill:#060022}.st4,.st6{clip-path:url(#SVGID_2_)}.st6{opacity:.25}.st7,.st8{fill:#060022;stroke:#060022;stroke-width:1.3;stroke-linecap:round;stroke-linejoin:round;stroke-miterlimit:10}.st8{fill:none}</style><g><g><ellipse transform="rotate(-45.001 109.999 128.003)" cx="110" cy="128" rx="110" ry="110" fill="#fff"/></g><g><path class="st1" d="M85.7 73.6l7.4 1.9.3 38.6s25.9-9 24.9-10.4c0 0-9.6-40.4-9.2-42.6 4.1-22.5-3.4-35-13.4-31.6-4.6 1.5-7.7 5.8-8.2 10.6-.9 8.8-2.6 26-3.2 31.5-.1.9.3 1.7 1.4 2z"/></g><g><path class="st2" d="M100.4 49.6c-3.2-1.6-4.1-6.9-4.5-11.9-6.6 2.9-13.1-.6-14.7-8.1C67.6 30.7 66 20.8 71.1 7.5 72.4-4.2 78.7-.2 85.7 6c10.4-1.1 18.6 5.8 24.9 20 6.4 2.3 7.3 9.1 5.4 18.3 0 0-3.7 13-7.1 15.8-.2.2-.6.2-.8.1-2.2-1.5-3.1-4.4-3.1-4.4 2.1-.6 2.3-6.2 2-7.3-.5-1.9-1.7-3-3.5-2.3-1 .4-1.5 1-2 2.9-.1.4-.6.7-1.1.5z"/></g><g opacity=".25"><path class="st2" d="M85 73.3c0 .1 12.1-1.5 16.8-4.1l-.6 2c-.2 1-.3 1.9-.4 2.9-.2 4.4-7.6 4.1-7.6 4.1v-2.6s-2-.5-4.2-1.1c-1-.3-1.9-.5-2.6-.7-.8-.2-1.2-.4-1.4-.5z"/></g><g><defs><ellipse id="SVGID_1_" transform="rotate(-45.001 109.999 127.817)" cx="110" cy="127.8" rx="110" ry="110"/></defs><clipPath id="SVGID_2_"><use xlink:href="#SVGID_1_" overflow="visible"/></clipPath><g class="st4"><path d="M219.9 312.7c-2.4-28.7-6.2-65.9-18.1-102.4-6.7-20.5-16-40.8-29.2-59.2-7.3-10.2-18.6-26.3-36-33.7-8.2-6.8-12.9-9.7-18.3-13.9L115.1 90l-21.8 7.5v5.9c-2.6 5.6-4.3 9.7-6.4 15.5C64.4 141.7 46 200.4 33 248.5 23.4 228.1-16.1 278.7-.4 293c13.2 12 36.8 15.4 52.3 6.6 7.4-4.2 12.4-10.1 16.3-20.9 1 8.6 2.7 24 4.2 32.2l72.3.1 11.6-61.1c5.6 21.5 9.5 47.2 11.3 62.6l52.3.2z" fill="#26a69a"/></g><g class="st6"><path class="st2" d="M145.7 233.7s-3.4-24.8-6.1-47.9c-1.4 24.9-2 46.6 2.8 62.9l8.5-12.5-1-4.7c-2.6 1.2-4.2 2.1-4.2 2.2z"/></g><g class="st4"><path class="st1" d="M139.5 184.8c11.6-.1 23.1-1 34.6-2 3.8-.3 7.7-.7 11.5-1.1 0 0-11.1-52.1-12.1-51.7-2.2.9-.2 14.1-1.5 14.1s-2.3-21.1-4.3-21.5c-2-.3-1.7 15.2-1.6 19.8-2.6-4.7-6.8-21.7-9.1-21.8s-1.5 9.6 2.8 23.2c-4.7-14.9-20.7-12.6-18-10.5 1.3 1.1 4 2.4 7.7 4.4 1.7.9 3.2 2.6 3.2 4.2-.2 1.7-.5 3.4-1.1 4.8-1 2.7-2.1 5.8-4.7 4.5-2.5-1.3-6.1-6-6-8.9 0-2.5-.3-5.4-1-5.8-1.4-.7-2.8 6.6-3.5 10.3-1.4 7.3 3.1 38 3.1 38z"/></g><g class="st6"><g><path class="st2" d="M72.2 212.4c1.5 26.4 2.4 49.3-2.7 66.3L61 266.2l11.2-53.8z"/></g></g></g><g><path class="st2" d="M90.8 45.6c-.2.6-.1 2.3.5 2.7.3.2.8.1 1-.6.1-.3.4-1.6.3-1.8l-1.8-.3z"/></g><g><path class="st2" d="M104.7 49.6c-.1.6-.3 1.2-.7 1.7M103.8 51.9s-.1 0-.1-.1c-.3-.2-.4-.6-.2-.9.4-.5.5-1 .6-1.4 0-.4.3-.6.7-.6.4 0 .6.3.6.7-.1.7-.3 1.3-.8 2-.2.3-.5.4-.8.3z"/></g><path class="st7" d="M91.1 44.9c.6.2 1 .6 1.5 1.1"/><g><g><path class="st2" d="M84.3 45.6c-.2.6-.1 2.3.5 2.7.3.2.8.1 1-.6.1-.3.4-1.6.3-1.8l-1.8-.3z"/></g><path class="st7" d="M84.5 44.9c.6.2 1 .6 1.5 1.1"/></g><path class="st8" d="M89.9 67.5s2.2.6 3.7-.9c1.2-1.3 1.9-4.2 1.9-4.2M87.8 49.2L85.3 61l2.8.9"/></g></svg>