<svg id="Layer_1" xmlns="http://www.w3.org/2000/svg" viewBox="0 0 179 249">
  <style>
    .st0{fill:#ffcab3}.st1{fill:#060022}.st2{opacity:.25}.st3{fill:#26a69a}.st4,.st5{fill:#060022;stroke:#060022;stroke-width:1.3;stroke-linecap:round;stroke-linejoin:round;stroke-miterlimit:10}.st5{fill:none}
  </style>
  <g>
    <g>
      <path class="st0" d="M52.9 74l7.4 1.9.3 38.6s25.9-9 24.9-10.4c0 0-9.6-40.4-9.2-42.6 4.1-22.5-3.4-35-13.4-31.6-4.6 1.5-7.7 5.8-8.2 10.6-.9 8.8-2.6 26-3.2 31.5-.2.9.3 1.7 1.4 2z"/>
    </g>
    <g>
      <path class="st1" d="M67.6 49.9c-3.2-1.6-4.1-6.9-4.5-11.9-6.6 2.9-13.1-.6-14.7-8.1-13.6 1.2-15.2-8.8-10.1-22.1C39.6-3.8 45.9.1 52.9 6.3c10.4-1.1 18.6 5.8 25 20 6.4 2.3 7.3 9.1 5.4 18.3 0 0-3.7 13-7.1 15.8-.2.2-.6.2-.8.1-2.2-1.5-3.1-4.4-3.1-4.4 2.1-.6 2.3-6.2 2-7.3-.5-1.9-1.7-3-3.5-2.3-1 .4-1.5 1-2 2.9-.2.5-.7.8-1.2.5z"/>
    </g>
    <g class="st2">
      <path class="st1" d="M52.2 73.7c0 .1 12.1-1.5 16.8-4.1l-.6 2c-.2 1-.3 1.9-.4 2.9-.2 4.4-7.6 4.1-7.6 4.1V76s-2-.5-4.2-1.1c-1-.3-1.9-.5-2.6-.7-.8-.2-1.2-.4-1.4-.5z"/>
    </g>
    <g>
      <path class="st3" d="M178.7 248.6c-2.5-12.5-5.6-25.2-9.8-37.9-6.7-20.5-16-40.8-29.2-59.2-7.3-10.2-18.6-26.3-36-33.7-8.2-6.8-12.9-9.7-18.3-13.9l-3.2-13.5-21.8 7.5v5.9c-2.6 5.6-4.3 9.7-6.4 15.5C31.6 142 13.3 200.5.3 248.6h178.4z"/>
    </g>
    <g class="st2">
      <g>
        <path class="st1" d="M107 182.8c-1.5 26.4-2.5 48.8 2.5 65.8h9.7L107 182.8z"/>
      </g>
    </g>
    <path class="st3" d="M141.3 183.2c-11.5 1-23.1 1.8-34.6 2 2.7 23.4 8.2 63.4 8.2 63.4h49.9c-1.4-9.2-9.8-55.6-12-66.5-3.9.4-7.7.8-11.5 1.1z"/>
    <path class="st0" d="M106.7 185.2c11.6-.1 23.1-1 34.6-2 3.8-.3 7.7-.7 11.5-1.1 0 0-10.9-52.2-12.1-51.7-2.2.9-.2 14.1-1.5 14.1s-2.3-21.1-4.3-21.5c-2-.3-1.7 15.2-1.6 19.8-2.6-4.7-6.8-21.7-9.1-21.8s-1.5 9.6 2.8 23.2c-4.7-14.9-20.7-12.6-18-10.5 1.3 1.1 4 2.4 7.7 4.4 1.7.9 3.2 2.6 3.2 4.2-.2 1.7-.5 3.4-1.1 4.8-1 2.7-2.1 5.8-4.7 4.5-2.5-1.3-6.1-6-6-8.9 0-2.5-.3-5.4-1-5.8-1.4-.7-2.8 6.6-3.5 10.3-1.4 7.7 3.1 38 3.1 38z"/>
    <g class="st2">
      <g>
        <path class="st1" d="M39.4 212.8c.7 12.9 1.3 24.9 1.1 35.9h-8.6l7.5-35.9z"/>
      </g>
    </g>
    <g>
      <path class="st1" d="M58 46c-.2.6-.1 2.3.5 2.7.3.2.8.1 1-.6.1-.3.4-1.6.3-1.8L58 46z"/>
    </g>
    <g>
      <path class="st1" d="M71.9 50c-.1.6-.3 1.2-.7 1.7M71 52.3s-.1 0-.1-.1c-.3-.2-.4-.6-.2-.9.4-.5.5-1 .6-1.4 0-.4.3-.6.7-.6.4 0 .6.3.6.7-.1.7-.3 1.3-.8 2-.2.3-.5.4-.8.3z"/>
    </g>
    <path class="st4" d="M58.2 45.3c.6.2 1 .6 1.5 1.1"/>
    <g>
      <g>
        <path class="st1" d="M51.5 46c-.2.6-.1 2.3.5 2.7.3.2.8.1 1-.6.1-.3.4-1.6.3-1.8l-1.8-.3z"/>
      </g>
      <path class="st4" d="M51.7 45.3c.6.2 1 .6 1.5 1.1"/>
    </g>
    <path class="st5" d="M57.1 67.8s2.2.6 3.7-.9c1.2-1.3 1.9-4.2 1.9-4.2M55 49.5l-2.5 11.9 2.8.9"/>
  </g>
</svg>
