<?xml version="1.0" encoding="utf-8"?>
<!-- Generator: Adobe Illustrator 22.1.0, SVG Export Plug-In . SVG Version: 6.00 Build 0)  -->
<svg version="1.1" id="Layer_1" xmlns="http://www.w3.org/2000/svg" xmlns:xlink="http://www.w3.org/1999/xlink" x="0px" y="0px"
	 viewBox="0 0 200 170" style="enable-background:new 0 0 200 170;" xml:space="preserve">
<style type="text/css">
	.st0{opacity:0.2;}
</style>
<g>
	<path class="st0" d="M101.9,68.4c-2.6,7.3-0.2,17.9,8.9,18.7c4.3,0.4,9.1-2.5,8.9-7.2c0-1.5-0.7-3.1-1.6-4.6
		c-0.2-1.1-0.7-2.2-1.8-2.9c-0.2-0.2-0.5-0.3-0.7-0.5c-1-1.2-2.1-2.2-2.9-3.1c-2-2.1-4.9-1.5-6.5,0.2c0-0.2-0.1-0.4-0.1-0.6
		C105.6,66.1,102.5,66.6,101.9,68.4z"/>
	<path class="st0" d="M162.4,84.6c2.4-0.2,4.7-0.5,6.1-2.7c1.4-2.3,0.9-5-0.1-7.4c-1.8-4-5.6-6.5-10-6.6c-0.7,0-1.3,0.1-1.8,0.3
		c0-0.1,0-0.2,0-0.3c-0.2-2.5-3.4-2.9-4.2-0.6c-0.9,2.3-1.1,4.9-1.4,7.4c-0.2,1.9-0.7,3.9-0.2,5.8C152.1,85.8,158.1,84.9,162.4,84.6
		z"/>
	<path class="st0" d="M130.2,52.4c1.1-4,2.2-8,3.2-12c1.3-5.1-4.7-7.9-8-5.6c-0.4-1.1-0.8-2.3-1.2-3.4c-1.3-3.5-3.9-7.2-8.2-6.9
		c-1.6,0.1-2.8,0.7-3.8,1.6c-0.3,0-0.6,0.1-0.8,0.4c-5.8,6.6-6.6,15.7-5.3,24.1c0.6,4,6.5,3.4,7.5,0c1-3.2,1.6-6.6,2.3-9.9
		c0.2-1.1,0.5-2.2,0.7-3.3c0.4,1.4,0.7,2.8,1.1,4.1c1,3.6,1.9,7.2,2.9,10.9C121.9,57.2,128.9,57.1,130.2,52.4z"/>
	<path d="M98.2,113.2c0.8,0,1.5,0.7,1.5,1.5c0,0.1,0,0.2,0,0.2c9.4,0.8,20.9,1.1,35,1.1c1.3,0,2.6,0,3.9,0c0.1-0.4,0.2-0.7,0.4-1.1
		c0.4-0.7,1.3-1,2-0.7c0.6,0.3,0.9,1,0.8,1.7c21.1-0.4,31.9-2.9,37.4-8.4c5.7-5.7,5.7-14.3,5.6-26.2v-1.8c0-13-1.3-21.9-7.7-26.2
		c-5.7-3.8-14.6-3.8-29.5-3.8H147c-3.9,0-7.8,0.1-11.6,0.2v1.6c0,0.8-0.7,1.5-1.5,1.5s-1.5-0.7-1.5-1.5v-1.4
		c-3.5,0.1-7,0.3-10.5,0.5c-5.6,0.3-11.3,0.5-16.9,0.7c0,0.3,0,0.6,0,0.9v0.6c0,0.8-0.6,1.5-1.4,1.6c6.2-0.1,12.4-0.4,18.4-0.7
		c8.2-0.4,16.6-0.8,25-0.8h0.7c14.2,0,22.9,0,27.8,3.3c4.6,3.1,6.3,9.5,6.3,23.7v1.8c0,11.6,0,19.3-4.8,24.1
		c-5.4,5.4-17.7,7.6-42.3,7.6c-73.3,0-76.3-8.7-76.3-42.1c0-5.2,2.3-17.2,23.7-17.2c1.4,0,2.9,0,4.6,0.1c3.3,0.2,6.7,0.2,10.4,0.2
		c2.1,0,4.3,0,6.4-0.1c-0.8,0-1.4-0.6-1.5-1.4v-0.6c0-0.3,0-0.7,0-1c-1.6,0-3.2,0.1-4.9,0.1c-3.6,0-7-0.1-10.2-0.2
		c-1.7-0.1-3.3-0.1-4.7-0.1c-16.7,0-26.7,7.5-26.7,20.2c0,17,0.8,28.7,11.7,35.8c6,3.9,15.2,6.5,29.6,7.8
		C96.8,113.8,97.4,113.2,98.2,113.2z"/>
	<path d="M102,52.7c0,0.8,0.7,1.4,1.5,1.4h0.1c0.8-0.1,1.5-0.8,1.4-1.6v-0.6c0-0.3,0-0.6,0-0.9c-0.1-2.5-0.2-5-0.2-7.4
		c0-14,4.7-20.9,14.4-20.9c3.1,0,13.2,1.8,13.2,25.6v1.6v1.4c0,0.8,0.7,1.5,1.5,1.5s1.5-0.7,1.5-1.5v-1.6v-1.5
		c0-17.9-6.1-28.6-16.2-28.6c-11.6,0-17.4,8-17.4,23.9c0,2.5,0.1,5,0.2,7.5c0,0.3,0,0.7,0,1L102,52.7z"/>
	<path d="M129.3,36.6c-0.4-0.7-1.3-0.9-2.1-0.5c-0.8,0.5-1.7,1.2-2.5,1.8c-1.1,0.9-2.7,2.1-3.4,2.1c-0.4,0-1-1.2-1.5-2.1
		c-0.9-1.8-2.2-4.3-5.1-4.3c-1.5,0-2.6,1.2-3.7,2.5c-0.6,0.7-1.2,1.4-1.8,1.9c-0.7,0.5-0.8,1.4-0.3,2.1c0.5,0.7,1.4,0.8,2.1,0.3
		c0.9-0.7,1.6-1.5,2.3-2.3c0.5-0.5,1.1-1.3,1.4-1.5c1,0,1.5,1.1,2.4,2.7c0.8,1.7,1.9,3.7,4.2,3.7c1.7,0,3.4-1.3,5.2-2.7
		c0.8-0.6,1.5-1.2,2.2-1.6C129.5,38.2,129.7,37.3,129.3,36.6z"/>
	<path d="M92.7,38.6h-9.6c-0.8,0-1.5,0.7-1.5,1.5s0.7,1.5,1.5,1.5h9.6c0.8,0,1.5-0.7,1.5-1.5S93.6,38.6,92.7,38.6z"/>
	<path d="M94.2,24.5c-2.2-0.9-4.5-2.2-6.7-3.6c-0.7-0.4-1.6-0.2-2.1,0.5s-0.2,1.6,0.5,2.1c2.3,1.4,4.7,2.8,7.1,3.8
		c0.2,0.1,0.4,0.1,0.6,0.1c0.6,0,1.2-0.4,1.4-0.9C95.3,25.7,95,24.8,94.2,24.5z"/>
	<path d="M105.7,10c-0.2-1-0.4-2.2-1.2-3.4C104,6,103,5.9,102.4,6.4c-0.7,0.5-0.8,1.4-0.3,2.1c0.4,0.5,0.5,1.2,0.6,2
		c0.2,1.2,0.4,2.7,1.8,4.1c0.3,0.3,0.7,0.4,1.1,0.4s0.8-0.1,1.1-0.4c0.6-0.6,0.6-1.5,0-2.1C106,11.8,105.9,11.2,105.7,10z"/>
	<path d="M126.2,1.9c-0.8,0-1.5,0.7-1.5,1.5c0,1.8,0,3.5-0.4,5.1c-0.2,0.8,0.3,1.6,1.1,1.8c0.1,0,0.2,0,0.4,0c0.7,0,1.3-0.5,1.5-1.1
		c0.5-2,0.5-4,0.5-5.9C127.7,2.6,127,1.9,126.2,1.9z"/>
	<path d="M144.7,20.8c0.7-0.4,1-1.3,0.7-2c-0.4-0.7-1.3-1-2-0.7c-0.8,0.4-1.5,0.8-2.1,1.3c-0.9,0.6-1.7,1.1-2.6,1.4
		c-0.8,0.2-1.3,1-1.1,1.8c0.2,0.7,0.8,1.1,1.5,1.1c0.1,0,0.2,0,0.4,0c1.4-0.3,2.5-1.1,3.5-1.8C143.5,21.5,144.1,21.1,144.7,20.8z"/>
	<path d="M142.2,35.2c0.3,0.5,0.8,0.8,1.3,0.8c0.2,0,0.5-0.1,0.7-0.2c0.8-0.4,1.6-0.6,2.4-0.8c1-0.2,2-0.5,3.1-1
		c0.7-0.4,1-1.3,0.7-2c-0.4-0.7-1.3-1-2-0.7c-0.8,0.4-1.6,0.6-2.4,0.8c-1,0.2-2,0.5-3.1,1C142.1,33.6,141.8,34.5,142.2,35.2z"/>
	<path d="M149,40.9c-1,0-2,0.3-2.8,0.6c-0.9,0.3-1.7,0.5-2.3,0.4c-0.8-0.2-1.6,0.3-1.8,1.1s0.3,1.6,1.1,1.8c0.4,0.1,0.8,0.1,1.1,0.1
		c1,0,2-0.3,2.8-0.6c0.7-0.2,1.3-0.4,1.9-0.4c0.8,0,1.5-0.7,1.5-1.5C150.5,41.5,149.9,40.9,149,40.9z"/>
	<path d="M97.5,64.4C89,66.3,82.1,75,82.1,83.8c0,9.6,8.9,18,19,18c5.6,0,11-2.4,15.1-6.7c2.4-2.6,4.2-5.7,5-8.6
		c-0.3,0.2-0.6,0.4-1,0.4c-0.8,0-1.5,0-2.3,0c-2.2,5.8-8.4,11.9-16.8,11.9c-9.4,0-16-7.9-16-15c0-7.5,5.9-14.9,13.1-16.5
		c0.4-0.1,0.8-0.1,1.2-0.2c0-0.2,0-0.5,0.1-0.7c0.1-0.8,0.9-1.4,1.7-1.3c0.8,0.1,1.4,0.9,1.3,1.7c0,0.1,0,0.1,0,0.2
		c7.9,0.5,16.4,7,16.4,15.6c0,0.4,0,0.8-0.1,1.3c0.5,0,1,0,1.5,0c0.6,0,1.2,0.4,1.4,1c0.1-0.7,0.2-1.5,0.2-2.2
		c0-10-9.5-18.7-20.4-18.7C100.1,64,98.8,64.1,97.5,64.4z"/>
	<path d="M120.2,83.9c-0.5,0-1,0-1.5,0c-4.6,0.1-8.1,0.5-10.7,0.8c-2.5,0.3-4.5,0.6-5.1,0.1C102,84,102,80,102,73.9v-1
		c0-2.1,0.1-4,0.4-5.9c0-0.1,0-0.1,0-0.2c0.1-0.8-0.5-1.6-1.3-1.7s-1.6,0.5-1.7,1.3c0,0.2-0.1,0.5-0.1,0.7c-0.2,1.8-0.3,3.7-0.3,5.8
		v1c0,8.4,0,11.5,1.9,13.2c0.9,0.8,1.9,1,3.3,1c1.1,0,2.5-0.2,4.1-0.4c2.4-0.3,5.5-0.7,9.5-0.8c0.7,0,1.5,0,2.3,0
		c0.4,0,0.7-0.2,1-0.4c0.3-0.3,0.5-0.7,0.5-1.1c0-0.2,0-0.4-0.1-0.5C121.4,84.3,120.8,83.9,120.2,83.9z"/>
	<path d="M154.8,101.4c9.4,0,17.7-10.9,17.7-19.4c0-9.6-9.3-18.3-19.4-18.3c-3.2,0-6,1-8.5,2.1c-6.3,2.8-10.9,9.7-10.9,16.5
		C133.7,92.7,143.4,101.4,154.8,101.4z M145.8,68.6c1-0.4,2.1-0.9,3.2-1.2c0-0.4-0.1-0.8-0.1-1.1c-0.1-0.8,0.6-1.5,1.4-1.6
		c0.8-0.1,1.5,0.6,1.6,1.4c0,0.3,0,0.5,0.1,0.8c0.4,0,0.7-0.1,1.1-0.1c8.4,0,16.4,7.4,16.4,15.3c0,0.6-0.1,1.2-0.2,1.8
		c0.4,0,0.9,0,1.3,0.1c0.8,0.1,1.4,0.8,1.4,1.6c-0.1,0.8-0.8,1.4-1.6,1.4c-0.6,0-1.2-0.1-1.9-0.1c-2.2,5.9-7.8,11.6-13.8,11.6
		c-9.6,0-18.1-7.5-18.1-16.1C136.7,76.7,140.5,71,145.8,68.6z"/>
	<path d="M150,81c0,0.3,0,0.7-0.1,1c-0.1,1-0.2,2.3,0.8,3.4c1.2,1.3,3.5,1.8,8.5,1.8c1.6,0,3.1-0.1,4.6-0.2c1.6-0.1,3.3-0.2,4.8-0.2
		c0.7,0,1.3,0,1.9,0.1c0.8,0.1,1.5-0.6,1.6-1.4s-0.6-1.5-1.4-1.6c-0.4,0-0.9,0-1.3-0.1c-1.8,0-3.9,0-5.7,0.1c-1.5,0.1-3,0.2-4.5,0.2
		c-5.2,0-6.1-0.6-6.3-0.8c-0.1-0.1,0-0.7,0-1.1s0.1-0.8,0.1-1.3c0-3.6-0.3-7.2-0.7-10.7c-0.1-1.2-0.2-2.4-0.3-3.5
		c0-0.3,0-0.5-0.1-0.8c-0.1-0.8-0.8-1.4-1.6-1.4c-0.8,0.1-1.4,0.8-1.4,1.6c0,0.4,0.1,0.8,0.1,1.1c0.1,1.1,0.2,2.1,0.3,3.2
		C149.6,74.1,150,77.6,150,81z"/>
	<path d="M99.8,118.3c-0.1-1.1-0.1-2.3-0.1-3.3c0-0.1,0-0.2,0-0.2c0-0.8-0.7-1.5-1.5-1.5s-1.5,0.7-1.5,1.5c0,1.2,0.1,2.5,0.1,3.7
		c0.1,1.2,0.1,2.4,0.1,3.6c0,0.1,0,0.2,0,0.3c0.9-0.1,1.9-0.3,3-0.4C99.9,120.7,99.9,119.4,99.8,118.3z"/>
	<path d="M141,114.3c-0.7-0.4-1.6-0.1-2,0.7c-0.2,0.4-0.3,0.7-0.4,1.1c-0.2,0.7-0.3,1.4-0.3,2.2c0,1,0.2,1.9,0.3,2.7
		c0.1,0.3,0.1,0.6,0.2,1c1,0.1,2,0.1,3.1,0.2c-0.1-0.6-0.2-1.1-0.3-1.7c-0.1-0.8-0.3-1.5-0.3-2.2s0.1-1.3,0.5-2
		c0.1-0.1,0.1-0.2,0.1-0.3C142,115.3,141.7,114.6,141,114.3z"/>
	<path d="M18.3,108.6c0.8-0.1,1.6,0.4,1.7,1.2c0.1,0.3,0.1,0.7,0.2,1.1c0,0,0.1,0,0.1-0.1c4.2-2.9,5.9-8.1,7.4-12.6
		c0.3-0.9,0.6-1.9,0.9-2.7c-0.9-0.8-1.7-1.9-2.1-3.7c-1.7-1.6-3.9-2.8-6.3-3.5c-0.1,0.3-0.2,0.6-0.3,0.8c-0.3,0.8-1.2,1.1-2,0.8
		c-0.8-0.3-1.1-1.2-0.8-1.9c0-0.1,0.1-0.2,0.1-0.3c-0.7-0.1-1.4-0.1-2.2-0.1c-8.5,0-13.1,5-13.1,14.1c0,8.1,3.8,10.7,5.7,10.7
		c1.5,0,4.3-2.6,6.6-6.8c0.4,2,1.4,3.5,2.8,4.5C17.1,109.4,17.6,108.8,18.3,108.6z M16.5,93.5c-0.8-0.1-1.5,0.5-1.7,1.3
		c-1.3,8.5-5.9,13.6-7.2,14.6C6.8,108.9,5,107,5,101.7c0-7.5,3.3-11.1,10.1-11.1c4.4,0,8.2,1.7,10.5,4.6c-0.2,0.7-0.5,1.4-0.7,2.1
		c-1.3,4-2.7,8.2-5.7,10.7c-1.2-0.6-2.3-1.8-2.3-5.3c0-1.7,0.3-3.6,0.5-5.2c0.1-0.8,0.2-1.6,0.3-2.4C17.9,94.3,17.3,93.6,16.5,93.5z
		"/>
	<path d="M29,109c0-0.4-0.1-0.8-0.1-1.2v0.1C28.8,108.3,28.9,108.7,29,109z"/>
	<path d="M18,90c0.8,0.3,1.6-0.1,2-0.8c0.1-0.3,0.2-0.5,0.3-0.8c0.5-1.8,0.7-4.3,0.9-6.9c0.5-6.8,1.2-12,4.7-12.1
		c0.5,0.4,1.2,2.9,1.2,6.2c0,1.9-0.2,3.9-0.4,5.9c-0.2,2.1-0.4,4.2-0.4,6.4c0,1.6,0.1,2.9,0.4,4c0.4,1.8,1.2,2.9,2.1,3.7
		c0.7,0.6,1.5,0.9,2.3,1.2c1.4,0.5,2.1,0.8,2.1,3.4c0,1.2-0.8,2.4-1.8,3.7c-0.6,0.9-1.3,1.9-1.9,3c0.3-0.3,0.6-0.4,1-0.5
		c0.8-0.1,1.5,0.6,1.6,1.4c0,0.2,0,0.4,0,0.6c0.4-0.9,1-1.8,1.7-2.8c1.2-1.6,2.4-3.3,2.4-5.5c0-4.3-1.9-5.4-4-6.2
		c-1.6-0.6-2.9-1.1-2.9-6.1c0-2,0.2-4.1,0.4-6.1c0.2-2,0.4-4.1,0.4-6.2c0-2.8-0.4-9.2-4.1-9.2c-6.6,0-7.2,8.2-7.7,14.8
		c-0.2,2.6-0.4,5-0.9,6.5c0,0.1-0.1,0.2-0.1,0.3C16.9,88.8,17.2,89.7,18,90z"/>
	<path d="M93.2,159.6c0.2-2.1,0.4-4.2,0.4-6.4c0-5-0.7-7.5-2.4-8.9c-2.2-1.7-5.4-0.9-10.2,0.4c-1.7,0.4-3.6,0.9-5.7,1.4
		c0,0.3,0.1,0.6,0.1,0.9c0.1,0.8-0.5,1.6-1.3,1.7c-0.1,0-0.1,0-0.2,0c-0.7,0-1.4-0.6-1.5-1.3c0-0.2-0.1-0.4-0.1-0.6
		c-4.1,0.8-9,1.3-14.8,1.3c-3.9,0-7.3-0.3-10.3-0.8h-0.1c-0.2,0-0.3,0-0.5-0.1c-11.9-2.1-18.1-7.6-21.4-14.2c-0.1,0-0.1,0.1-0.2,0.1
		c-0.2,0.1-0.3,0.1-0.5,0.1c-0.6,0-1.2-0.4-1.4-1c-0.3-0.8,0.1-1.6,0.9-1.9c-2-5.1-2.7-10.7-3.3-15.6c-0.2-1.3-0.3-2.5-0.5-3.7
		c-0.1-0.4-0.1-0.7-0.2-1.1c-0.1-0.8-0.9-1.4-1.7-1.2c-0.7,0.1-1.3,0.8-1.3,1.5c0,0.1,0,0.1,0,0.2c0.2,1.4,0.4,3,0.6,4.7
		c1.7,14.3,4.4,36,39.9,36c11,0,18.9-2.1,24.2-3.4c3.7-0.9,6.5-1.7,7.6-0.9c0.8,0.6,1.2,2.8,1.2,6.5c0,2-0.2,4.1-0.4,6.1
		c-0.2,2.1-0.4,4.2-0.4,6.3c0,1.5,0.1,2.9,0.3,4.2h3c-0.2-1.3-0.4-2.7-0.4-4.2C92.8,163.7,93,161.6,93.2,159.6z"/>
	<path d="M30.4,106.3c-0.4,0-0.8,0.2-1,0.5c-0.3,0.3-0.4,0.7-0.4,1.1s0,0.8,0.1,1.2c0.4,5.4,2.1,10.7,4.8,15.2
		c0.1-0.1,0.1-0.1,0.2-0.2c0.6-0.5,1.6-0.5,2.1,0.2c0.5,0.6,0.5,1.6-0.2,2.1c-0.2,0.1-0.3,0.3-0.5,0.4c0.4,0.6,0.9,1.2,1.3,1.7
		c3.4,4,7.7,6.8,12.5,8.2c0.3-0.4,0.9-0.7,1.5-0.6c0.7,0.1,1.1,0.6,1.2,1.3c1.6,0.3,3.2,0.5,4.9,0.5c5.6,0,9.6-0.8,13-1.9
		c0,0,0,0,0.1-0.1c0.2-0.1,0.4-0.2,0.6-0.2c2.7-1,4.9-2.2,7.2-3.5c6.9-3.8,14.8-8.2,37.9-8.2c6.9,0,13.9,0.4,20.7,0.8
		c3.1,0.2,6.3,0.4,9.4,0.5c0.8,0,1.5-0.6,1.6-1.4s-0.6-1.5-1.4-1.6c-1.4-0.1-2.8-0.1-4.1-0.2c-1-0.1-2-0.1-3.1-0.2
		c-0.7,0-1.5-0.1-2.2-0.1c-6.8-0.4-13.9-0.8-20.8-0.8c-6.2,0-11.4,0.3-15.7,0.8c-1,0.1-2,0.3-3,0.4c-10.4,1.6-15.7,4.6-20.6,7.3
		c-5.1,2.8-9.6,5.3-19.4,5.3c-11.4,0-24-9.3-25-26.5c0-0.2,0-0.4,0-0.6C31.9,106.9,31.2,106.3,30.4,106.3z"/>
	<path d="M174.5,130c-9.4-4.8-18.9-6.2-23.1-6.6c-0.4-0.2-0.9-0.1-1.3-0.1c-0.6,0-1,0-1,0c-1.2,0-1.6,0.9-1.6,1.5
		c0,0.7,0.3,1.5,1.9,1.5c0.2,0,0.4,0,0.6,0c4.2,0.3,21.8,2.2,33.7,13.9c5.4,5.3,8.9,11.9,10.5,19.7c0.4,0.1,0.7,0.3,0.9,0.6
		c0.5,0.7,0.3,1.6-0.4,2.1l0,0c0.3,2.2,0.5,4.6,0.5,7c0,0.1,0,0.2,0,0.3h2.9c0-0.1,0-0.2,0-0.3C198.2,146.9,185.3,135.5,174.5,130z"
		/>
	<path d="M154.4,143.2c0.2,0,0.5,0,0.8,0c7.9,0,13.4,2.1,17.4,5.4c0.4-1,0.9-1.9,1.4-2.8c-4.2-3.3-10-5.4-17.9-5.6
		c-0.2,0.7-0.3,1.3-0.6,2C155.3,142.7,154.9,143,154.4,143.2z"/>
	<path d="M184.9,166.9c-0.2,0.1-0.4,0.1-0.6,0.1c-0.6,0-1.1-0.3-1.4-0.9c-0.3-0.8,0-1.6,0.8-2c0.3-0.1,0.5-0.2,0.8-0.3
		c-1.3-5.5-3.6-11.4-8.2-16c-0.4,0.7-0.8,1.5-1.1,2.2c-0.1,0.2-0.2,0.4-0.4,0.6c5.2,5.6,6.9,13.2,7.9,19.3h3c-0.2-1-0.3-2-0.5-3.1
		C185,166.8,185,166.9,184.9,166.9z"/>
	<path d="M153.9,143.2c-0.1,0-0.2,0-0.3,0c-0.8-0.3-1.2-1.1-0.9-1.9c0.1-0.3,0.2-0.7,0.3-1c-3.6,0.3-6.6,1.5-6.6,6.8
		c0,0.1,0,0.2,0,0.3s2.5,11.7,3.8,22.6h3c-1.1-10.5-3.5-21.6-3.8-23.1C149.4,144.2,150,143.3,153.9,143.2z"/>
	<path d="M153.6,143.1c0.1,0,0.2,0,0.3,0s0.1,0,0.2,0c0.1,0,0.2,0,0.3,0c0.5-0.1,0.9-0.5,1.1-1c0.2-0.7,0.4-1.3,0.6-2
		c0.4-1.5,0.6-3.1,0.9-4.6c0.3-2.2,0.7-4.2,1.3-6.2c0.3-0.8-0.2-1.6-0.9-1.9c-0.8-0.3-1.6,0.2-1.9,0.9c-0.7,2.2-1.1,4.5-1.4,6.6
		c-0.3,1.8-0.6,3.5-1,5.2c-0.1,0.3-0.2,0.7-0.3,1C152.4,142,152.8,142.9,153.6,143.1z"/>
	<path d="M172.4,149c-0.3,0.8,0.1,1.6,0.9,1.9c0.2,0.1,0.4,0.1,0.5,0.1c0.4,0,0.7-0.1,1-0.4c0.2-0.2,0.3-0.3,0.4-0.6
		c0.3-0.8,0.7-1.5,1.1-2.2c0.2-0.4,0.5-0.8,0.7-1.2c1.3-2.2,2.9-4.7,2.9-8.1c0-0.8-0.7-1.5-1.5-1.5s-1.5,0.7-1.5,1.5
		c0,2.5-1.2,4.5-2.4,6.5c-0.2,0.2-0.3,0.5-0.5,0.8c-0.5,0.9-1,1.8-1.4,2.8C172.5,148.7,172.4,148.8,172.4,149z"/>
	<path d="M182.9,166.1c0.2,0.6,0.8,0.9,1.4,0.9c0.2,0,0.4,0,0.6-0.1c0.1,0,0.2-0.1,0.2-0.1c1-0.4,2-0.8,3-1.1c2.3-0.8,4.6-1.7,6.6-3
		l0,0c0.7-0.5,0.9-1.4,0.4-2.1c-0.2-0.3-0.6-0.5-0.9-0.6c-0.4-0.1-0.8,0-1.2,0.2c-1.7,1.1-3.8,1.9-6,2.7c-0.9,0.3-1.7,0.6-2.6,1
		c-0.3,0.1-0.5,0.2-0.8,0.3C182.9,164.5,182.6,165.3,182.9,166.1z"/>
	<path d="M36,126.4c0.6-0.5,0.7-1.5,0.2-2.1s-1.5-0.7-2.1-0.2c-0.1,0.1-0.1,0.1-0.2,0.2c-2.7,2.3-5.8,4.6-9.8,5.9c0,0,0,0-0.1,0
		c-0.7,0.3-1.1,1.1-0.9,1.9c0.2,0.6,0.8,1,1.4,1c0.2,0,0.3,0,0.5-0.1c0.1,0,0.1-0.1,0.2-0.1c4.3-1.5,7.5-3.8,10.3-6.2
		C35.7,126.6,35.9,126.5,36,126.4z"/>
	<path d="M52,138.7c0-0.3,0.1-0.6,0.1-0.9c0-0.2,0-0.3,0-0.5c-0.1-0.6-0.6-1.1-1.2-1.3c-0.6-0.1-1.1,0.2-1.5,0.6
		c-0.1,0.2-0.2,0.4-0.3,0.6c0,0.3-0.1,0.6-0.1,0.9c-0.4,2.4-0.8,5-2.7,6.3c-0.7,0.5-0.9,1.4-0.4,2.1c0.2,0.3,0.5,0.5,0.7,0.6
		s0.3,0.1,0.5,0.1h0.1c0.3,0,0.5-0.1,0.7-0.2C51,145.1,51.5,141.5,52,138.7z"/>
	<path d="M69.9,135.9c-0.7,0.4-0.9,1.3-0.5,2c1.5,2.7,2.4,5.4,2.9,8.9c0,0.2,0.1,0.4,0.1,0.6c0.1,0.8,0.7,1.3,1.5,1.3
		c0.1,0,0.1,0,0.2,0c0.8-0.1,1.4-0.9,1.3-1.7c0-0.3-0.1-0.6-0.1-0.9c-0.6-3.7-1.6-6.8-3.3-9.8c-0.3-0.5-0.9-0.8-1.4-0.7
		C70.4,135.7,70.2,135.7,69.9,135.9C70,135.8,70,135.9,69.9,135.9z"/>
	<path d="M135.6,140.6c0-0.7,0-1.4,0-2.1c0-0.4-0.2-0.9-0.5-1.2s-0.7-0.4-1.2-0.4c-3.2,0.3-6.5,0.3-9.6,0.3h-2.6
		c-4.4,0-8.8,0.1-13.2,0.8c-0.7,0.1-1.3,0.8-1.3,1.5c0,0.5,0,1.1,0,1.6c0,1.7-0.1,3.3-0.1,5c-0.1,1.7-0.1,3.4-0.1,5.1
		c0,0.7,0,1.5,0,2.2c0,0.8,0.7,1.4,1.5,1.4c3.8-0.1,7.6-0.1,11.4-0.1c5,0,10.2,0,15.3-0.2c0.4,0,0.8-0.2,1.1-0.5s0.4-0.8,0.3-1.2
		C136,148,135.6,144.1,135.6,140.6z M120,151.9c-3.2,0-6.6,0-9.9,0.1c0-0.2,0-0.4,0-0.6c0-1.7,0.1-3.3,0.1-5
		c0.1-1.7,0.1-3.4,0.1-5.1c0-0.1,0-0.2,0-0.3c3.8-0.5,7.6-0.6,11.4-0.6h2.6c2.6,0,5.4,0,8.2-0.2c0,0.2,0,0.3,0,0.5
		c0,3.2,0.3,6.8,0.9,11.1C129,151.9,124.4,151.9,120,151.9z"/>
	<g id="Layer_2_1_">
	</g>
</g>
</svg>
