<svg xmlns="http://www.w3.org/2000/svg" viewBox="0 0 320 319.98">
  <g data-name="Layer 2">
    <g data-name="Layer 2">
      <path d="M273.3 46.86c52.39 52.36 61.82 135.49 22.61 198.08l15.51 57.78L256.4 288c-63.4 47.72-153.22 41.46-209.52-14.82-62.47-62.44-62.51-164-.08-226.41s164.03-62.36 226.5.09zm30.78 248.52l-13.77-51.3.61-1c38.62-60.66 29.66-141.66-21.29-192.6C209.18-9.9 110.87-9.93 50.47 50.44s-60.37 158.65.07 219.07c54.78 54.75 142.36 60.58 203.72 13.56l1-.78zm-48.24-10.25z" fill="#cbd1d7"/>
    </g>
  </g>
</svg>
