<?xml version="1.0" encoding="utf-8"?>
<!-- Generator: Adobe Illustrator 23.0.2, SVG Export Plug-In . SVG Version: 6.00 Build 0)  -->
<svg version="1.1" id="Layer_1" xmlns="http://www.w3.org/2000/svg" xmlns:xlink="http://www.w3.org/1999/xlink" x="0px" y="0px"
	 viewBox="0 0 220 238" style="enable-background:new 0 0 220 238;" xml:space="preserve">
<style type="text/css">
	.st0{fill:#FFFFFF;}
	.st1{fill:#FFCAB3;}
	.st2{fill:#060022;}
	.st3{opacity:0.25;}
	.st4{clip-path:url(#SVGID_2_);}
	.st5{fill:#26A69A;}
	.st6{opacity:0.25;clip-path:url(#SVGID_2_);}
	.st7{fill:#060022;stroke:#060022;stroke-width:1.3;stroke-linecap:round;stroke-linejoin:round;stroke-miterlimit:10;}
	.st8{fill:none;stroke:#060022;stroke-width:1.3;stroke-linecap:round;stroke-linejoin:round;stroke-miterlimit:10;}
</style>
<g>
	<g>
		<ellipse transform="matrix(0.7071 -0.7071 0.7071 0.7071 -58.2921 115.2723)" class="st0" cx="110" cy="128" rx="110" ry="110"/>
	</g>
	<g>
		<path class="st1" d="M85.7,73.6l7.4,1.9l0,0l0.3,38.6c0,0,25.9-9,24.9-10.4c0,0-9.6-40.4-9.2-42.6c4.1-22.5-3.4-35-13.4-31.6
			c-4.6,1.5-7.7,5.8-8.2,10.6c-0.9,8.8-2.6,26-3.2,31.5C84.2,72.5,84.6,73.3,85.7,73.6z"/>
	</g>
	<g>
		<path class="st2" d="M100.4,49.6c-3.2-1.6-4.1-6.9-4.5-11.9c-6.6,2.9-13.1-0.6-14.7-8.1C67.6,30.7,66,20.8,71.1,7.5
			C72.4-4.2,78.7-0.2,85.7,6c10.4-1.1,18.6,5.8,24.9,20c6.4,2.3,7.3,9.1,5.4,18.3c0,0-3.7,13-7.1,15.8c-0.2,0.2-0.6,0.2-0.8,0.1
			c-2.2-1.5-3.1-4.4-3.1-4.4c2.1-0.6,2.3-6.2,2-7.3c-0.5-1.9-1.7-3-3.5-2.3c-1,0.4-1.5,1-2,2.9C101.4,49.5,100.9,49.8,100.4,49.6z"
			/>
	</g>
	<g class="st3">
		<path class="st2" d="M85,73.3c0,0.1,12.1-1.5,16.8-4.1l-0.6,2c-0.2,1-0.3,1.9-0.4,2.9c-0.2,4.4-7.6,4.1-7.6,4.1l0-2.6
			c0,0-2-0.5-4.2-1.1c-1-0.3-1.9-0.5-2.6-0.7C85.6,73.6,85.2,73.4,85,73.3z"/>
	</g>
	<g>
		<defs>
			
				<ellipse id="SVGID_1_" transform="matrix(0.7071 -0.7071 0.7071 0.7071 -58.1605 115.2178)" cx="110" cy="127.8" rx="110" ry="110"/>
		</defs>
		<clipPath id="SVGID_2_">
			<use xlink:href="#SVGID_1_"  style="overflow:visible;"/>
		</clipPath>
		<g class="st4">
			<path class="st5" d="M219.9,312.7c-2.4-28.7-6.2-65.9-18.1-102.4c-6.7-20.5-16-40.8-29.2-59.2c-7.3-10.2-18.6-26.3-36-33.7
				c-8.2-6.8-12.9-9.7-18.3-13.9l-3.2-13.5l-21.8,7.5l0,5.9c-2.6,5.6-4.3,9.7-6.4,15.5C64.4,141.7,46,200.4,33,248.5
				c-9.6-20.4-49.1,30.2-33.4,44.5c13.2,12,36.8,15.4,52.3,6.6c7.4-4.2,12.4-10.1,16.3-20.9c1,8.6,2.7,24,4.2,32.2l72.3,0.1
				l11.6-61.1c5.6,21.5,9.5,47.2,11.3,62.6L219.9,312.7z"/>
		</g>
		<g class="st6">
			<path class="st2" d="M145.7,233.7c0,0-3.4-24.8-6.1-47.9c-1.4,24.9-2,46.6,2.8,62.9l8.5-12.5l-1-4.7
				C147.3,232.7,145.7,233.6,145.7,233.7z"/>
		</g>
		<g class="st4">
			<path class="st1" d="M139.5,184.8c11.6-0.1,23.1-1,34.6-2c3.8-0.3,7.7-0.7,11.5-1.1c0,0-11.1-52.1-12.1-51.7
				c-2.2,0.9-0.2,14.1-1.5,14.1c-1.3,0-2.3-21.1-4.3-21.5c-2-0.3-1.7,15.2-1.6,19.8c-2.6-4.7-6.8-21.7-9.1-21.8s-1.5,9.6,2.8,23.2
				c-4.7-14.9-20.7-12.6-18-10.5c1.3,1.1,4,2.4,7.7,4.4c1.7,0.9,3.2,2.6,3.2,4.2c-0.2,1.7-0.5,3.4-1.1,4.8c-1,2.7-2.1,5.8-4.7,4.5
				c-2.5-1.3-6.1-6-6-8.9c0-2.5-0.3-5.4-1-5.8c-1.4-0.7-2.8,6.6-3.5,10.3C135,154.1,139.5,184.8,139.5,184.8z"/>
		</g>
		<g class="st6">
			<g>
				<path class="st2" d="M72.2,212.4c1.5,26.4,2.4,49.3-2.7,66.3L61,266.2L72.2,212.4z"/>
			</g>
		</g>
	</g>
	<g>
		<path class="st2" d="M90.8,45.6c-0.2,0.6-0.1,2.3,0.5,2.7c0.3,0.2,0.8,0.1,1-0.6c0.1-0.3,0.4-1.6,0.3-1.8L90.8,45.6z"/>
	</g>
	<g>
		<path class="st2" d="M104.7,49.6c-0.1,0.6-0.3,1.2-0.7,1.7"/>
		<path class="st2" d="M103.8,51.9c0,0-0.1,0-0.1-0.1c-0.3-0.2-0.4-0.6-0.2-0.9c0.4-0.5,0.5-1,0.6-1.4c0-0.4,0.3-0.6,0.7-0.6
			c0.4,0,0.6,0.3,0.6,0.7c-0.1,0.7-0.3,1.3-0.8,2C104.4,51.9,104.1,52,103.8,51.9z"/>
	</g>
	<path class="st7" d="M91.1,44.9c0.6,0.2,1,0.6,1.5,1.1"/>
	<g>
		<g>
			<path class="st2" d="M84.3,45.6c-0.2,0.6-0.1,2.3,0.5,2.7c0.3,0.2,0.8,0.1,1-0.6c0.1-0.3,0.4-1.6,0.3-1.8L84.3,45.6z"/>
		</g>
		<path class="st7" d="M84.5,44.9c0.6,0.2,1,0.6,1.5,1.1"/>
	</g>
	<path class="st8" d="M89.9,67.5c0,0,2.2,0.6,3.7-0.9c1.2-1.3,1.9-4.2,1.9-4.2"/>
	<polyline class="st8" points="87.8,49.2 85.3,61 88.1,61.9 	"/>
</g>
</svg>
