<?xml version="1.0" encoding="utf-8"?>
<!-- Generator: Adobe Illustrator 19.2.1, SVG Export Plug-In . SVG Version: 6.00 Build 0)  -->
<svg version="1.1" id="Layer_1" xmlns="http://www.w3.org/2000/svg" xmlns:xlink="http://www.w3.org/1999/xlink" x="0px" y="0px"
	 viewBox="0 0 24 24" style="enable-background:new 0 0 24 24;" xml:space="preserve">
<style type="text/css">
	.st0{fill:none;}
</style>
<path class="st0" d="M1,2C2.1,1,3.3,0.3,4.7,0H0v3C0.3,2.6,0.7,2.3,1,2z"/>
<path class="st0" d="M2.3,22.9c-0.9-0.7-1.7-1.4-2.3-2.2V24h4C3.4,23.7,2.9,23.3,2.3,22.9z"/>
<path class="st0" d="M16.2,14.2c0.5-1,3-3.4,3.2-4.1c-0.2,0.3-1.3-1.4-1.7-1.9C17.4,8.1,17,8,16.6,8c-0.9-0.1-1.9-0.2-2.8-0.4
	c-0.7-0.1-1.4-0.3-2.1-0.6C11,8.6,9.3,9.8,7.5,10c-0.2,0.4-0.4,0.8-0.7,1.2c0,1.8,0.1,3,1.9,4.1c2.4,1.4,3.9,1.6,6.7,1.7
	c0.1,0,0.2,0,0.2,0C15.6,16,15.8,15.1,16.2,14.2z"/>
<path class="st0" d="M20.2,21.7c0,0.8-0.1,1.6-0.3,2.3H24v-3.6C23,21.3,21.6,21.7,20.2,21.7z"/>
<polygon points="16,11 8,11 12,15 "/>
</svg>
