<?xml version="1.0" encoding="utf-8"?>
<!-- Generator: Adobe Illustrator 23.0.1, SVG Export Plug-In . SVG Version: 6.00 Build 0)  -->
<svg version="1.1" id="Layer_1" xmlns="http://www.w3.org/2000/svg" xmlns:xlink="http://www.w3.org/1999/xlink" x="0px" y="0px"
	 viewBox="0 0 24 24" style="enable-background:new 0 0 24 24;" xml:space="preserve">
<style type="text/css">
	.st0{fill:none;}
</style>
<path class="st0" d="M0,0h24v24H0V0z"/>
<g>
	<path d="M12,10c-1.38,0-2.5,1.12-2.5,2.5S10.62,15,12,15s2.5-1.12,2.5-2.5S13.38,10,12,10z M12,14.1c-0.88,0-1.6-0.72-1.6-1.6
		s0.72-1.6,1.6-1.6s1.6,0.72,1.6,1.6S12.88,14.1,12,14.1z"/>
	<path d="M12,2C6.5,2,2,6.5,2,12s4.5,10,10,10s10-4.5,10-10S17.5,2,12,2z M17,15.5c0,0.55-0.45,1-1,1H8c-0.55,0-1-0.45-1-1v-6
		c0-0.55,0.45-1,1-1h1.59l0.91-1h3l0.91,1H16c0.55,0,1,0.45,1,1V15.5z"/>
</g>
</svg>
